<?xml version="1.0" encoding="UTF-8"?>
<svg version="1.1" xmlns="http://www.w3.org/2000/svg" width="2000" height="2000">
<path d="M0 0 C2.9370713 0.01937076 5.87408199 0.02317934 8.81120872 0.02671432 C12.37465522 0.03188138 15.93804787 0.04631987 19.50146484 0.06115723 C20.79313568 0.0654071 22.08480652 0.06965698 23.4156189 0.07403564 C29.54838173 0.12243737 35.57745438 0.31067037 41.66973877 1.03894043 C43.86954394 1.27267804 46.04031855 1.36045111 48.25146484 1.40490723 C77.7404455 2.00317244 108.06916571 5.55655211 136.79052734 12.26428223 C137.94568848 12.53047363 139.10084961 12.79666504 140.29101562 13.07092285 C172.04435452 20.51462129 203.02640897 30.92737967 232.79052734 44.26428223 C233.77649902 44.705625 234.7624707 45.14696777 235.77832031 45.60168457 C251.14723708 52.60334311 265.01770135 61.53123827 278.79052734 71.26428223 C279.46438477 71.73720703 280.13824219 72.21013184 280.83251953 72.6973877 C289.506282 78.85071337 297.09753889 86.07593493 304.74755859 93.43225098 C307.3850453 95.96082149 310.06948242 98.40605613 312.83349609 100.79553223 C316.80749275 104.24037598 320.57433475 107.85670697 324.29052734 111.57678223 C325.27098022 112.55626831 325.27098022 112.55626831 326.27124023 113.55554199 C330.51033229 117.84108407 334.36705372 122.27407582 338.03662109 127.06115723 C343.62884672 134.08569008 350.68193247 140.66504493 358.02490234 145.83850098 C358.60755859 146.30900879 359.19021484 146.7795166 359.79052734 147.26428223 C359.79052734 147.92428223 359.79052734 148.58428223 359.79052734 149.26428223 C360.45052734 149.26428223 361.11052734 149.26428223 361.79052734 149.26428223 C372.23066558 160.08692553 379.88725208 173.62197544 387.41552734 186.51428223 C393.11902819 196.27022702 398.70278 205.41101098 406.88818359 213.29943848 C414.25812611 220.91151463 419.69523284 229.53219069 424.68164062 238.8182373 C428.36245153 245.62795057 432.3705028 252.20427781 436.47802734 258.76428223 C437.09572998 259.75468506 437.71343262 260.74508789 438.34985352 261.76550293 C441.19383497 266.28661653 444.08527083 270.66276951 447.31005859 274.92053223 C455.20269286 286.10610518 458.96297811 300.26250064 463.24630737 313.13168335 C467.50631759 325.91138662 471.92710198 338.61496489 476.72802734 351.20178223 C477.18226074 352.39327881 477.63649414 353.58477539 478.10449219 354.81237793 C479.88307916 359.43914771 481.67351321 364.0534097 483.63037109 368.60803223 C489.02807796 381.24388545 491.54432574 394.46878249 494.03662109 407.92834473 C494.24665771 409.05587158 494.45669434 410.18339844 494.6730957 411.34509277 C495.06960137 413.50071019 495.45545947 415.65832862 495.82788086 417.8182373 C496.85642002 423.48806506 498.24778585 428.82273965 500.14233398 434.26843262 C502.64682606 441.61952863 504.68406434 449.04146195 506.56787109 456.57678223 C506.90315104 457.90639043 507.23852656 459.23597454 507.57398987 460.5655365 C508.45579199 464.07344372 509.32676981 467.5839381 510.19302368 471.09571457 C510.5515266 472.54885945 510.91080781 474.00181253 511.27084351 475.4545784 C516.02093633 494.6230931 520.26118351 513.67050107 522.9074707 533.25915527 C525.70318448 553.87039591 530.1610448 574.64629447 537.46630859 594.15490723 C541.72348187 606.71848486 542.29316526 618.73059714 542.23657227 631.87512207 C542.22810008 634.86362577 542.25685688 637.85018653 542.28857422 640.83850098 C542.33895019 653.78258792 540.91533948 665.71468578 537.79052734 678.26428223 C537.58507294 679.10082336 537.37961853 679.9373645 537.16793823 680.79925537 C535.63438008 686.9800373 533.98213926 693.12511903 532.29052734 699.26428223 C532.03307739 700.20506622 531.77562744 701.14585022 531.51037598 702.11514282 C525.06371776 725.59893932 517.67071681 748.78343863 508.73144531 771.44470215 C505.71486297 779.1943601 503.19005648 787.09464576 500.66552734 795.01428223 C500.34239059 796.02697174 500.34239059 796.02697174 500.01272583 797.06011963 C499.5855841 798.39885098 499.15848481 799.73759588 498.73143005 801.07635498 C494.12998454 815.49939688 489.09832558 829.4932837 482.79052734 843.26428223 C482.33790527 844.25831055 481.8852832 845.25233887 481.41894531 846.27648926 C475.44353554 859.37516044 469.32891479 872.40575273 462.97802734 885.32678223 C462.47577637 886.36560547 461.97352539 887.40442871 461.45605469 888.47473145 C455.8345974 899.78179698 448.33418147 909.04651474 439.79052734 918.26428223 C438.32974615 919.88708209 436.87142641 921.51210092 435.41552734 923.13928223 C433.06214917 925.76498568 430.69388539 928.36646799 428.27099609 930.92834473 C418.99805491 940.78508748 410.68376213 951.4209055 402.79443359 962.41271973 C392.89690202 976.14274154 381.32299447 989.31179193 366.79052734 998.26428223 C365.27652344 999.20400879 365.27652344 999.20400879 363.73193359 1000.16271973 C344.34146304 1011.29958477 322.71321178 1017.5679662 300.79052734 1021.26428223 C299.49888672 1021.50791504 298.20724609 1021.75154785 296.87646484 1022.00256348 C263.00207977 1027.6228057 230.67263178 1019.19667011 199.26171875 1007.19396973 C196.67054404 1006.21914328 194.06676321 1005.28608677 191.45849609 1004.35803223 C172.52417417 997.53792528 152.75416141 987.24362573 139.79052734 971.26428223 C139.79052734 970.60428223 139.79052734 969.94428223 139.79052734 969.26428223 C139.13052734 969.26428223 138.47052734 969.26428223 137.79052734 969.26428223 C136.37346233 967.71539721 135.03243238 966.09666689 133.72802734 964.45178223 C132.92107422 963.44244629 132.11412109 962.43311035 131.28271484 961.39318848 C130.65961426 960.60839111 130.65961426 960.60839111 130.02392578 959.80773926 C128.16219561 957.47799695 126.25450767 955.18662234 124.35302734 952.88928223 C121.56063935 949.48817298 118.8534459 946.04196758 116.20947266 942.52429199 C110.91003282 935.48814041 105.12871053 929.05439432 99.09033203 922.64807129 C96.22590585 919.59856573 93.47996674 916.46847453 90.79052734 913.26428223 C89.99517578 912.3438916 89.19982422 911.42350098 88.38037109 910.47521973 C79.59224107 900.0103964 73.31575396 888.21726933 66.79052734 876.26428223 C59.21975834 862.5322668 50.2087587 851.20961519 39.04052734 840.32678223 C38.01507195 839.31644052 36.99032967 838.30537452 35.96630859 837.2935791 C34.09072056 835.44212784 32.21056651 833.59584196 30.32666016 831.75280762 C26.06719743 827.57330207 21.9379374 823.3545766 17.97802734 818.88928223 C14.36202147 814.88046619 10.64863654 811.27578716 6.52099609 807.80725098 C3.98394804 805.54509752 1.96413968 802.87261703 -0.20947266 800.26428223 C-2.022535 798.58196957 -3.89374061 796.98218422 -5.77587891 795.37756348 C-8.79339512 792.75721633 -11.71769303 790.04486649 -14.64697266 787.32678223 C-15.21150146 786.80769287 -15.77603027 786.28860352 -16.35766602 785.75378418 C-18.81336541 783.49559222 -21.24499952 781.22933023 -23.62353516 778.88928223 C-29.25385777 773.48417252 -34.95653098 770.97647996 -42.20947266 768.26428223 C-44.54783281 767.27609387 -46.88108045 766.27573375 -49.20947266 765.26428223 C-50.39541016 764.7563916 -51.58134766 764.24850098 -52.80322266 763.72521973 C-54.86790996 762.83967724 -56.93091214 761.95017234 -58.99072266 761.05334473 C-62.04686577 759.74482368 -65.1222212 758.49781978 -68.20947266 757.26428223 C-68.95100586 756.96231934 -69.69253906 756.66035645 -70.45654297 756.34924316 C-89.99101803 748.47851926 -109.51917277 743.90006949 -130.64697266 743.70178223 C-131.74162842 743.68695801 -132.83628418 743.67213379 -133.96411133 743.65686035 C-141.42486573 743.75312076 -147.39290714 745.2866061 -154.20947266 748.26428223 C-154.94431885 748.57744385 -155.67916504 748.89060547 -156.4362793 749.21325684 C-158.48343569 750.11188499 -160.50445383 751.0510923 -162.52197266 752.01428223 C-163.25359619 752.36152344 -163.98521973 752.70876465 -164.73901367 753.06652832 C-170.31577259 755.75206145 -175.67323904 758.72934122 -181.01025391 761.86584473 C-184.44482873 763.85864914 -187.93446408 765.73514941 -191.43994141 767.60021973 C-192.57181885 768.20269531 -193.70369629 768.8051709 -194.86987305 769.42590332 C-197.11774832 770.61866639 -199.36810051 771.80677754 -201.62133789 772.98937988 C-215.81979472 780.53792655 -226.9499614 788.98235243 -237.39697266 801.17053223 C-239.45980561 803.55345995 -241.58367963 805.87490067 -243.70947266 808.20178223 C-246.52894481 811.31653694 -249.18349015 814.47049991 -251.70947266 817.82678223 C-263.87754798 833.61762543 -279.7341931 843.06186774 -297.49658203 851.32873535 C-304.42478337 854.65758428 -310.72508324 858.71116784 -317.08447266 863.01428223 C-318.14512939 863.72656982 -319.20578613 864.43885742 -320.29858398 865.17272949 C-326.52662024 869.37827148 -332.62214151 873.68488143 -338.58056641 878.26428223 C-348.67132567 885.94105599 -359.38676267 892.68155996 -370.20947266 899.26428223 C-371.0734668 899.79134766 -371.93746094 900.31841309 -372.82763672 900.8614502 C-384.02312943 907.66535172 -395.12409094 914.17144578 -407.20947266 919.26428223 C-408.31419922 919.77217285 -409.41892578 920.28006348 -410.55712891 920.80334473 C-422.75248662 925.97874136 -435.76298881 927.86730805 -448.74017334 930.12567139 C-455.14198089 931.24127663 -461.52450289 932.44853121 -467.90722656 933.66784668 C-474.33593312 934.89577089 -480.77231418 936.08155406 -487.20947266 937.26428223 C-488.16160645 937.44120605 -489.11374023 937.61812988 -490.09472656 937.80041504 C-490.94341309 937.95606934 -491.79209961 938.11172363 -492.66650391 938.27209473 C-493.36622314 938.40116211 -494.06594238 938.53022949 -494.78686523 938.66320801 C-518.22912373 942.46878404 -542.33332916 941.45214015 -566.00805664 941.44958496 C-570.94105344 941.44948245 -575.87390919 941.46326211 -580.80687237 941.48035717 C-584.64952741 941.49151299 -588.49214832 941.49350326 -592.33481789 941.49297523 C-594.15389312 941.49414502 -595.97296953 941.49850959 -597.79202843 941.5063076 C-609.77347949 941.55297278 -620.95215912 941.36135422 -632.20947266 936.70178223 C-633.13904785 936.31868896 -633.13904785 936.31868896 -634.08740234 935.92785645 C-640.11922416 933.39651279 -646.01083634 930.56260551 -651.89477539 927.7076416 C-655.79618301 925.82707066 -659.68821312 924.03318879 -663.72900391 922.47131348 C-685.65515067 913.97880852 -712.76375684 899.83739013 -726.58447266 880.26428223 C-727.05506104 879.61419189 -727.52564941 878.96410156 -728.01049805 878.29431152 C-730.68702189 874.55604111 -733.18198325 870.74597423 -735.57739258 866.82312012 C-741.90950909 856.48446926 -750.186958 848.76503863 -759.35009766 840.88928223 C-765.44049324 835.56658357 -770.46020281 829.89699158 -775.09228516 823.26428223 C-776.51517306 821.24808683 -777.99091671 819.26827218 -779.51416016 817.32678223 C-787.39275166 807.18078686 -792.48031829 795.80065473 -797.84912109 784.18859863 C-799.66300312 780.28933825 -801.5395717 776.42478061 -803.45947266 772.57678223 C-803.92716064 771.63258423 -803.92716064 771.63258423 -804.40429688 770.66931152 C-806.25260223 766.9925907 -808.2654796 763.4658847 -810.40454102 759.95153809 C-814.97658241 752.36814983 -817.40173797 744.91545337 -819.20947266 736.26428223 C-819.40105957 735.41011719 -819.59264648 734.55595215 -819.79003906 733.67590332 C-823.34481713 717.75282494 -825.30921162 701.81782301 -826.86572266 685.59997559 C-827.01526803 684.0440487 -827.1650039 682.48814012 -827.31494141 680.93225098 C-827.38733032 680.17980606 -827.45971924 679.42736115 -827.53430176 678.65211487 C-828.0803197 673.14980308 -828.87365555 667.71161976 -829.7565918 662.25280762 C-833.78271014 635.68476737 -832.9637795 608.3153131 -830.77197266 581.63146973 C-830.34133371 576.3052225 -830.023351 570.98395724 -829.77197266 565.64709473 C-828.67892686 542.68984154 -826.35746212 520.64205139 -820.41699219 498.35339355 C-818.51315794 491.03145977 -817.31896091 483.7604414 -816.33447266 476.26428223 C-813.68110339 456.5181444 -809.18726392 436.45334766 -801.61181641 417.98693848 C-800.25512066 414.38545925 -799.27167242 410.83991778 -798.31933594 407.11901855 C-794.77361999 393.38290984 -788.74606458 381.03305856 -782.63769531 368.30529785 C-780.39145116 363.52252569 -778.47762173 358.64862523 -776.58056641 353.71740723 C-774.69190762 348.9607851 -772.56436228 344.32179997 -770.44824219 339.66296387 C-767.96263904 334.12376983 -765.72731256 328.51232394 -763.54077148 322.84899902 C-753.33270415 296.52251712 -737.43964463 275.81618635 -716.20947266 257.26428223 C-714.33115837 255.55959363 -712.45621769 253.85118126 -710.58447266 252.13928223 C-707.46214524 249.28884287 -704.31303528 246.49318635 -701.08447266 243.76428223 C-694.67286371 238.17534408 -689.27795302 231.62592144 -683.95947266 225.01428223 C-676.90591884 216.29668579 -669.14821253 208.17601959 -661.20947266 200.26428223 C-660.69384766 199.70225098 -660.17822266 199.14021973 -659.64697266 198.56115723 C-651.16415308 189.43290572 -639.76420444 183.33454022 -629.27197266 176.82678223 C-617.01653506 169.21837393 -605.50307162 161.08747295 -594.14697266 152.20178223 C-569.42953311 132.86951857 -544.06744304 122.71897299 -514.38110352 113.07873535 C-503.62021173 109.52202078 -493.0873364 105.42043735 -482.52197266 101.32678223 C-469.8628738 96.4226937 -457.21149747 91.80095001 -444.20947266 87.88928223 C-429.21078259 83.37407022 -414.71297604 77.91189885 -400.1953125 72.04650879 C-371.67222741 60.5445921 -342.03475496 51.71437363 -312.20947266 44.26428223 C-310.90241079 43.93099853 -309.59544886 43.59732274 -308.28857422 43.26330566 C-282.89313601 36.80958836 -257.24267516 32.41035698 -231.38580322 28.23880005 C-230.11976257 28.03451385 -228.85372192 27.83022766 -227.54931641 27.61975098 C-226.29858337 27.41812347 -225.04785034 27.21649597 -223.75921631 27.00875854 C-214.28404126 25.46907989 -204.86137606 23.72498847 -195.44061279 21.88601685 C-172.6530828 17.45100434 -149.60686651 14.97391439 -126.50268555 12.82312012 C-112.90284318 11.5269354 -99.52789927 9.21748189 -86.08764648 6.79870605 C-57.36920156 1.65785323 -29.10986065 -0.23011093 0 0 Z " fill="#FDCF00" transform="translate(1142.20947265625,778.7357177734375)"/>
<path d="M0 0 C-1.6770117 4.69931849 -4.09704527 8.84688625 -6.625 13.125 C-7.29486938 14.26376587 -7.29486938 14.26376587 -7.97827148 15.42553711 C-10.48703461 19.63394364 -13.10334235 23.65069602 -16.0625 27.5625 C-25.70458964 40.38608886 -32.19734837 55.08789146 -37.81640625 70.01953125 C-38.76695668 72.41316154 -39.77949874 74.61535711 -41 76.875 C-46.49052231 87.54857536 -49.04519627 99.6565928 -51.76904297 111.25976562 C-53.69586525 119.32006037 -56.2010144 127.00371325 -59.60546875 134.56640625 C-61.38151447 138.93935916 -62.31934898 143.33453786 -63.3125 147.9375 C-65.00692856 155.45804962 -67.11707424 162.55323134 -69.96875 169.7109375 C-71.84587102 174.4432584 -73.03750872 179.01254516 -74 184 C-74.33 184.33 -74.66 184.66 -75 185 C-75.40955723 187.39733848 -75.76432721 189.78185739 -76.0859375 192.19140625 C-76.23961288 193.29765602 -76.23961288 193.29765602 -76.39639282 194.42625427 C-76.72658414 196.8044726 -77.05139498 199.1833771 -77.375 201.5625 C-77.79494178 204.64777995 -78.21853898 207.732497 -78.6484375 210.81640625 C-78.80903152 211.96869217 -78.80903152 211.96869217 -78.97286987 213.14425659 C-79.70366163 218.25724109 -80.59769333 223.319332 -81.59375 228.38671875 C-82.88591325 234.99104676 -83.65805491 241.53880881 -84.125 248.25 C-84.27055808 250.21375722 -84.4188797 252.17731207 -84.5703125 254.140625 C-84.65949951 255.40181152 -84.65949951 255.40181152 -84.75048828 256.68847656 C-85 259 -85 259 -85.51635742 260.88574219 C-86.19167399 263.8379085 -86.14894862 266.66064002 -86.16796875 269.6875 C-86.1721582 270.33761047 -86.17634766 270.98772095 -86.18066406 271.65753174 C-86.19046287 273.77174913 -86.19044653 275.88576356 -86.1875 278 C-86.18722809 278.72473511 -86.18695618 279.44947021 -86.18667603 280.19616699 C-86.16962674 290.06947717 -85.88475618 299.81954835 -84.64575195 309.62402344 C-84.18005375 313.41099918 -83.76547766 317.19996014 -83.3815918 320.99609375 C-81.72322923 337.34769904 -79.62319593 353.60019343 -77.203125 369.85595703 C-76.62340749 373.7607266 -76.05735783 377.66732021 -75.4921875 381.57421875 C-73.74149796 393.52213362 -71.8556117 405.41934831 -69.42578125 417.25 C-69.23404327 418.19236511 -69.0423053 419.13473022 -68.84475708 420.10565186 C-67.15272103 428.03088886 -64.58149581 435.54117698 -61.7578125 443.125 C-59.92087717 448.10379739 -58.41334329 453.15446711 -56.9375 458.25 C-54.15506173 467.77047598 -50.88139872 477.04391931 -47.08447266 486.21020508 C-43.76184206 494.29570955 -41.1467212 502.58701369 -38.53125 510.92382812 C-35.36858098 520.68276313 -31.64291223 529.70640244 -24.4375 537.1875 C-19.41868708 542.94481692 -16.07187904 549.17396008 -12.5625 555.9375 C-6.14208477 568.24510474 0.92383274 578.38520324 12 587 C10.59317031 596.1758892 -0.23809594 603.02821922 -7.203125 608.1875 C-9.76876211 609.85014751 -12.15384803 610.92710502 -15 612 C-16.02019573 612.9793879 -17.02149805 613.97895449 -18 615 C-18.639375 615.309375 -19.27875 615.61875 -19.9375 615.9375 C-22.13056996 616.92792081 -22.13056996 616.92792081 -23.875 618.9375 C-26 621 -26 621 -28.8125 622.25 C-31.88770484 623.93834775 -32.97095162 624.99884651 -35.09375 627.6484375 C-39.1041043 632.34101178 -43.68153309 635.80431031 -48.6875 639.375 C-49.52861328 639.98988281 -50.36972656 640.60476563 -51.23632812 641.23828125 C-57.48303819 645.76603145 -57.48303819 645.76603145 -60.20629883 646.99853516 C-62.35190663 647.93210992 -62.35190663 647.93210992 -63 651 C-64.5234375 652.38671875 -64.5234375 652.38671875 -66.375 653.6875 C-66.98085938 654.12449219 -67.58671875 654.56148437 -68.2109375 655.01171875 C-70 656 -70 656 -73 656 C-73.26296875 656.59683594 -73.5259375 657.19367187 -73.796875 657.80859375 C-76.29044055 662.35044528 -80.61162847 665.31942572 -85.1875 667.5625 C-88.43913386 669.2244462 -89.75309502 671.17324857 -92 674 C-94.96466952 675.51848927 -96.65761787 676 -100 676 C-100 676.99 -100 677.98 -100 679 C-106.625 682 -106.625 682 -110 682 C-110 682.66 -110 683.32 -110 684 C-110.99 684 -111.98 684 -113 684 C-113 684.66 -113 685.32 -113 686 C-114.86382633 687.56656536 -116.7212009 689.01060769 -118.6875 690.4375 C-119.74324219 691.21996094 -120.79898437 692.00242187 -121.88671875 692.80859375 C-125.56378893 695.39684516 -128.83272156 697.6264709 -133.125 699 C-136.08301112 700.02887343 -136.90643031 700.81919824 -139 703 C-142.27085727 704.8094104 -145.31819736 706.29196103 -149 707 C-149 707.66 -149 708.32 -149 709 C-150.485 709.8353125 -150.485 709.8353125 -152 710.6875 C-154.73845101 712.23892084 -157.37152812 713.89493159 -160 715.625 C-163.5526017 717.87270377 -166.92841743 718.90939753 -171 720 C-173.05167068 720.93627829 -175.04083339 721.9588554 -177.0390625 723.00390625 C-178.77436003 723.88538209 -180.57250517 724.64065025 -182.375 725.375 C-185.41965251 726.73984423 -188.09805724 728.20782418 -190.9375 729.9375 C-197.9919773 734.22968197 -204.32667749 737.30612905 -212.38671875 739.2890625 C-215.03103998 740.00844436 -217.47075074 740.95058701 -220 742 C-233.70752429 747.05014053 -247.43307548 749.7160417 -261.85986328 751.58496094 C-265.36678466 752.04847877 -268.8688056 752.54176556 -272.37109375 753.0390625 C-274.93488739 753.40110144 -277.49868942 753.76308101 -280.0625 754.125 C-281.26277832 754.29580078 -282.46305664 754.46660156 -283.69970703 754.64257812 C-290.31850481 755.56361388 -296.90368643 756.29973305 -303.57202148 756.74951172 C-306.13832895 756.92544203 -306.13832895 756.92544203 -309 758 C-323.75477363 760.10524548 -337.01489716 758.34332136 -351.32250977 754.63647461 C-354.09194779 753.9781428 -356.85467725 753.50239208 -359.6640625 753.046875 C-364.55916665 752.19058982 -368.71983723 750.69881387 -373.1875 748.5625 C-374.49249761 747.95749114 -375.79848922 747.35462167 -377.10546875 746.75390625 C-377.74629395 746.45726074 -378.38711914 746.16061523 -379.04736328 745.85498047 C-381.00943536 744.99586864 -382.98656135 744.26152218 -385.00390625 743.54296875 C-389.1707309 742.01379834 -392.91834247 739.97463402 -396.75 737.75 C-397.44246826 737.35304932 -398.13493652 736.95609863 -398.84838867 736.54711914 C-400.24657672 735.74439888 -401.6433369 734.93918579 -403.03857422 734.13134766 C-404.7907373 733.12070243 -406.55293606 732.12750235 -408.31640625 731.13671875 C-418.21458123 725.52302107 -427.00437995 719.36160041 -434.8984375 711.1328125 C-436.7905003 709.21261493 -438.72948816 707.51834097 -440.8125 705.8125 C-452.33922414 695.89308799 -462.75779187 682.27738157 -470 669 C-471.03487534 667.39144376 -472.07749246 665.78785874 -473.125 664.1875 C-477.72960215 657.01705043 -481.76951602 649.53598656 -485.85522461 642.06274414 C-486.92137736 640.14166831 -488.02580167 638.24855016 -489.140625 636.35546875 C-490.92271603 633.13946833 -492.28546386 630.00586147 -493.5625 626.5625 C-493.95566406 625.51191406 -494.34882813 624.46132812 -494.75390625 623.37890625 C-495.16511719 622.26386719 -495.57632812 621.14882812 -496 620 C-496.24008789 619.38108887 -496.48017578 618.76217773 -496.72753906 618.12451172 C-498.64564302 613.1519688 -500.20526521 608.13558386 -501.625 603 C-501.94984375 601.86691406 -501.94984375 601.86691406 -502.28125 600.7109375 C-503.30857428 597.0201799 -504.13130693 593.44738397 -504.55859375 589.63671875 C-504.96441207 586.29320674 -505.81790607 584.11785808 -507.2421875 581.1171875 C-508.61844925 577.27216756 -508.96389446 573.21977064 -509.47265625 569.18359375 C-509.89544189 566.02329068 -509.89544189 566.02329068 -511.00488281 563.24658203 C-512.10132111 559.66943862 -512.33410889 556.6073781 -512.44921875 552.87109375 C-512.47095657 552.20014175 -512.4926944 551.52918976 -512.51509094 550.83790588 C-512.55879592 549.42193229 -512.59804255 548.00581476 -512.63305664 546.58959961 C-512.68674393 544.4673867 -512.75725886 542.34624196 -512.83007812 540.22460938 C-513.01899202 534.06734055 -513.08413945 527.98798627 -512.51953125 521.84375 C-511.65169078 512.27378929 -511.93246108 502.66187062 -512 493.0625 C-512.02669027 489.22005484 -512.04660013 485.37765947 -512.0625 481.53515625 C-512.07079834 480.66633316 -512.07909668 479.79751007 -512.08764648 478.90235901 C-512.10558361 474.45786284 -511.76954112 470.3880217 -511 466 C-510.91066519 463.45967109 -510.86235342 460.94222241 -510.859375 458.40234375 C-510.84512244 456.88165717 -510.8291765 455.36098576 -510.81176758 453.84033203 C-510.80271393 453.04226135 -510.79366028 452.24419067 -510.78433228 451.42193604 C-510.40213143 423.764184 -507.16291917 396.80737383 -499.81347656 370.10986328 C-498.8869967 366.56799639 -498.06880951 363.00658701 -497.2734375 359.43359375 C-491.6094788 334.01404256 -491.6094788 334.01404256 -486.97851562 323.28564453 C-485.77916346 320.48416376 -484.63467842 317.66181417 -483.484375 314.83984375 C-473.91833069 291.66576457 -462.80311731 269.26874027 -449.32373047 248.10351562 C-447.90652716 245.85146404 -446.52976811 243.57816244 -445.16015625 241.296875 C-440.699085 233.8706469 -436.18072569 226.6463442 -430.96875 219.71484375 C-428.63349566 216.49460215 -426.50195239 213.1723848 -424.375 209.8125 C-420.59661264 203.86263481 -416.62049122 198.21962062 -412.171875 192.75390625 C-408.56472113 188.31597087 -405.2700772 183.88208499 -402.1875 179.0625 C-397.28113636 171.82711208 -391.19872974 165.97112484 -384.94775391 159.89355469 C-380.65684316 155.70981123 -376.68220428 151.58785298 -373.0625 146.8125 C-369.40088362 142.10779055 -365.34698535 139.4099297 -360.3125 136.2890625 C-356.27945954 133.64512617 -352.86146605 130.37637305 -349.375 127.0625 C-348.7344165 126.45494873 -348.09383301 125.84739746 -347.43383789 125.22143555 C-344.68719972 122.60123385 -341.96090046 119.96178783 -339.24609375 117.30859375 C-334.19658524 112.51845005 -329.32782335 109.3843236 -323.01171875 106.46484375 C-319.96288285 104.98194691 -317.20839757 103.29579319 -314.375 101.4375 C-306.45661493 96.32307565 -298.88630059 92.8836468 -289.875 90.1875 C-279.96865915 87.22116146 -271.12886454 82.89506863 -262.08129883 77.95166016 C-257.19181759 75.36974393 -252.42987066 73.88870014 -247.0625 72.625 C-234.43867092 69.44655958 -222.70486374 65.54631677 -211.1875 59.4375 C-204.90635888 56.11500094 -198.93421366 53.97561278 -192 52.4375 C-180.56596069 49.89929998 -170.2847977 45.46308484 -160.0234375 39.84765625 C-152.00164812 35.49896502 -144.79728452 33.0509537 -135.79150391 31.50463867 C-123.88549561 29.40645802 -112.15266198 25.53803621 -101.25 20.3125 C-94.3268095 17.24878926 -86.87151865 16.64933371 -79.44067383 15.59130859 C-70.28366696 14.21772333 -62.48453761 11.65292951 -54 8 C-43.27276691 3.4611177 -32.08703649 2.70225574 -20.5625 1.9375 C-18.29277426 1.78277503 -16.02323205 1.62532792 -13.75390625 1.46484375 C-12.27386108 1.36610962 -12.27386108 1.36610962 -10.76391602 1.26538086 C-7.10411526 0.9139805 -3.68368848 0 0 0 Z " fill="#0D0C0B" transform="translate(896,890)"/>
<path d="M0 0 C2.53332759 0.1296155 5.0669969 0.24938426 7.60083008 0.36865234 C36.9349111 1.8166521 36.9349111 1.8166521 48.2355957 7.25537109 C57.62045856 11.35058397 66.77352896 14.46633718 76.75341797 16.68261719 C82.6783697 18.03520184 88.26992371 19.9690893 93.96606445 22.09130859 C101.93786119 24.92953491 110.07391115 26.52324752 118.4465332 27.63037109 C125.20705336 29.14533359 130.30187644 33.37963657 135.7355957 37.44287109 C142.30990395 42.28060755 148.9308307 46.56567316 156.0715332 50.50537109 C165.78734087 55.87905237 174.59799231 62.31953463 183.2355957 69.25537109 C184.06824951 69.92125244 184.06824951 69.92125244 184.91772461 70.60058594 C195.52586813 79.14440876 204.26706834 88.75719883 212.8137207 99.36474609 C216.04693624 103.22374529 219.48005549 106.87555834 222.92333984 110.54638672 C226.4173529 114.29699048 229.59110575 118.1888881 232.66918945 122.29052734 C234.20555245 124.21768592 235.82526683 125.872012 237.6105957 127.56787109 C241.56708969 131.39189319 244.68623521 135.74332335 247.9309082 140.17333984 C250.02939103 142.97961603 252.21831896 145.64779977 254.4855957 148.31787109 C265.35366494 161.5107621 274.30612325 176.20306841 282.8894043 190.94628906 C284.11431593 193.04734352 285.35494776 195.13820509 286.59887695 197.22802734 C297.18218546 215.25214442 306.61635222 234.86904086 310.7355957 255.44287109 C312.09611186 262.17780192 314.43036031 268.00701732 317.2355957 274.25537109 C318.54314696 277.26950832 319.82960847 280.29235941 321.1105957 283.31787109 C321.45437256 284.12901367 321.79814941 284.94015625 322.15234375 285.77587891 C324.82236106 292.13597625 327.25175452 298.56330904 329.58398438 305.05395508 C331.38561411 310.04186202 333.32992423 314.94637754 335.36938477 319.84155273 C338.87563705 328.28954103 341.47735849 336.49870971 343.3762207 345.43896484 C344.36239268 349.81846495 345.74964851 353.94290422 347.2434082 358.16943359 C348.19472776 361.12826213 348.93581876 364.09528688 349.63330078 367.12280273 C350.95812685 372.86868521 352.42540806 378.05847177 355.0480957 383.38037109 C362.29388125 398.20129608 366.03033235 414.60589007 369.63842773 430.62451172 C371.24643734 437.70869468 372.96334144 444.76816619 374.65795898 451.83203125 C375.20109933 454.11064964 375.73297045 456.39162941 376.26293945 458.67333984 C377.72863896 464.87246813 379.35689178 470.75911218 381.8605957 476.63037109 C384.25930498 482.54669978 385.01324252 488.07731907 385.56152344 494.3762207 C386.12468535 500.83176272 387.31004901 506.99953323 388.74731445 513.31396484 C389.26340013 517.47980844 388.96115725 521.0222764 388.50439453 525.17016602 C387.8893531 532.22945624 388.20064748 539.35007344 388.2746582 546.42919922 C388.39726464 565.77036429 388.39726464 565.77036429 386.2355957 572.25537109 C386.06528758 574.06985552 385.93984824 575.88871579 385.84106445 577.70849609 C384.88400585 593.42079031 382.7861978 606.9962971 377.16918945 621.77099609 C376.2852376 624.12326964 375.49907704 626.48675394 374.7355957 628.88037109 C373.49831991 632.65271741 371.97976194 636.22721575 370.2980957 639.82177734 C367.29218391 646.70664148 365.32723611 653.50730102 363.6730957 660.81787109 C360.50674054 674.61063181 356.45057093 687.79810888 350.4074707 700.63037109 C349.25901906 703.20290277 348.32789346 705.77609876 347.4230957 708.44287109 C345.54554384 713.76009797 343.08024694 718.70654805 340.51196289 723.71240234 C337.70904874 729.21032745 335.16716798 734.79903546 332.6730957 740.44287109 C327.82786886 751.31219956 323.00156938 761.35265092 315.28637695 770.52099609 C311.18988557 775.9829846 308.29421086 782.17220108 305.2355957 788.25537109 C304.81149414 789.06619141 304.38739258 789.87701172 303.95043945 790.71240234 C302.30170554 793.89076012 300.89287978 797.08224151 299.6730957 800.44287109 C297.54754379 806.26256404 294.60720473 809.88376207 290.2355957 814.25537109 C289.8024707 815.03912109 289.3693457 815.82287109 288.9230957 816.63037109 C287.25904984 819.21888688 285.76292755 820.61357972 283.4230957 822.56787109 C279.93304193 825.5092144 277.31969669 828.57243323 274.6652832 832.26708984 C270.71632822 837.75894254 267.53307189 841.45649279 261.2355957 844.25537109 C260.51581543 844.98336914 260.51581543 844.98336914 259.78149414 845.72607422 C257.2006673 848.27918529 253.78989522 849.3745598 250.4855957 850.75537109 C249.44918945 851.19816406 249.44918945 851.19816406 248.3918457 851.64990234 C247.00813504 852.24032024 245.62254618 852.82635587 244.23510742 853.40795898 C242.37796905 854.19503191 240.53644613 855.01867559 238.6965332 855.84521484 C235.03939157 857.33531431 231.43862108 858.35501746 227.6105957 859.31787109 C223.33565956 860.39744422 219.30321434 861.55994857 215.2355957 863.25537109 C202.65827612 866.9667113 202.65827612 866.9667113 197.2355957 864.25537109 C195.51871406 864.07857063 193.80113505 863.90699216 192.08129883 863.76171875 C182.82906311 862.95408076 173.81738193 861.30291942 164.7355957 859.38037109 C163.55562012 859.13585205 162.37564453 858.89133301 161.15991211 858.6394043 C140.13456996 854.06861316 125.88709611 843.71762684 112.1105957 827.31787109 C111.63468994 826.75358398 111.15878418 826.18929687 110.66845703 825.60791016 C106.86644053 821.07076623 103.20097143 816.43606269 99.56860352 811.76269531 C95.91910113 807.08236857 92.1539584 802.50699673 88.3605957 797.94287109 C79.92713259 787.76994111 71.82455977 777.34302564 64.1730957 766.56787109 C57.90861217 757.88991286 50.90485619 749.71774361 43.1730957 742.31787109 C38.73588666 737.98647784 35.20812399 733.31447136 31.62646484 728.28393555 C26.37793878 720.95029073 20.59954205 714.07557675 14.8190918 707.15917969 C12.66178071 704.56548375 10.54363051 701.9417091 8.4230957 699.31787109 C4.94882805 695.06301291 1.31770076 690.98242377 -2.37768555 686.91943359 C-9.10860338 679.40636328 -15.52881965 671.62345932 -21.79956055 663.72412109 C-23.95817082 661.01191097 -26.13770634 658.31795307 -28.3269043 655.63037109 C-29.34977539 654.37353516 -29.34977539 654.37353516 -30.39331055 653.09130859 C-31.17577148 652.15544922 -31.95823242 651.21958984 -32.7644043 650.25537109 C-33.53264526 649.32096191 -33.53264526 649.32096191 -34.31640625 648.36767578 C-38.40827288 643.51384335 -42.74845251 639.55217986 -47.8269043 635.75537109 C-48.56279785 635.19930176 -49.29869141 634.64323242 -50.05688477 634.0703125 C-58.72402162 627.63672352 -67.78970786 622.40102578 -77.7644043 618.25537109 C-77.19010594 614.73509198 -76.29645353 612.00374277 -74.5769043 608.88427734 C-74.13024414 608.07055664 -73.68358398 607.25683594 -73.22338867 606.41845703 C-72.74192383 605.56026367 -72.26045898 604.70207031 -71.7644043 603.81787109 C-71.2674707 602.9197168 -70.77053711 602.0215625 -70.25854492 601.09619141 C-67.45123901 596.07646963 -64.49935204 591.2581657 -61.2644043 586.50537109 C-56.63132123 579.5020655 -53.33414951 572.03215474 -49.93603516 564.36865234 C-47.03623692 557.87554837 -43.88621647 551.6597937 -40.3269043 545.50537109 C-36.13373177 538.21247642 -33.30469304 531.08296034 -31.15112305 522.93505859 C-29.37054652 516.490027 -26.72692214 510.62077747 -23.95117188 504.55810547 C-21.37469579 498.84380144 -19.20814256 493.06689575 -17.2019043 487.13037109 C-15.10793654 480.94356714 -12.87055732 474.90589485 -10.2019043 468.94287109 C-9.7680542 467.97305298 -9.7680542 467.97305298 -9.32543945 466.98364258 C-8.7522889 465.70496406 -8.1788875 464.42639796 -7.60522461 463.14794922 C-2.38042372 451.387596 1.34642026 439.4994712 4.2277832 426.95458984 C4.39648926 426.22353027 4.56519531 425.4924707 4.73901367 424.73925781 C5.05482322 423.35832853 5.36445014 421.97595973 5.66577148 420.59179688 C6.58204615 416.52739961 7.77359107 412.66827332 9.1652832 408.73974609 C11.6697099 401.3616679 13.02728807 393.84560487 14.3605957 386.19287109 C14.48977386 385.46681671 14.61895203 384.74076233 14.75204468 383.9927063 C16.74387562 372.78466975 18.39854354 361.61258381 19.2355957 350.25537109 C19.34516602 348.96115234 19.45473633 347.66693359 19.56762695 346.33349609 C20.21931539 337.67907365 20.31834895 329.08182513 20.19897461 320.40649414 C20.15366062 315.79857456 20.29352289 311.29687048 20.7277832 306.70849609 C21.65487833 295.56779383 21.3847465 284.36303608 21.3605957 273.19287109 C21.35937714 271.97781891 21.35815857 270.76276672 21.35690308 269.51089478 C21.33883223 254.15079944 21.22885771 238.79735157 20.7980957 223.44287109 C20.77853821 222.72082489 20.75898071 221.99877869 20.73883057 221.25485229 C20.54428199 214.33918021 20.22288416 207.49417196 19.45654297 200.6184082 C19.13411316 197.17001249 19.0772079 193.72579148 18.99584961 190.26464844 C18.65117314 176.89629055 16.60678809 164.26807579 13.53051758 151.27807617 C11.72097981 143.62085577 10.22568032 135.9440901 8.84515381 128.19882202 C6.59491782 115.64490404 3.91888643 103.30102975 0.70141602 90.95385742 C-0.8263471 85.08146494 -2.20708023 79.23797723 -3.31762695 73.27270508 C-4.78232597 65.42976207 -6.96035611 59.11540315 -10.8425293 52.05615234 C-13.31010216 47.42121954 -14.97855414 42.49480019 -16.7644043 37.56787109 C-21.1049551 25.85179518 -26.88004695 16.84086094 -35.20898438 7.57958984 C-38.7644043 3.56815543 -38.7644043 3.56815543 -38.7644043 0.25537109 C-25.87441979 -1.49242342 -12.94584023 -0.66950515 0 0 Z " fill="#0D0C0B" transform="translate(1210.764404296875,861.74462890625)"/>
<path d="M0 0 C5.09986622 4.78214293 9.82031484 9.8312856 14.359375 15.14453125 C15.98009509 16.97748849 17.67738411 18.67657041 19.4375 20.375 C22 23 22 23 22 25 C22.55300781 25.24492187 23.10601563 25.48984375 23.67578125 25.7421875 C28.60755409 28.41114692 32.72643552 32.40274313 37 36 C37.76957031 36.62003906 38.53914063 37.24007812 39.33203125 37.87890625 C57.38521564 52.93949071 64.94168101 73.18293946 72.19506836 94.88818359 C74.89833377 102.95143493 77.87262468 110.83118591 81.125 118.6875 C88.59940461 136.91694334 93.74436009 155.87182297 99.06420898 174.81738281 C100.83040513 181.07068365 102.71594988 187.25234352 104.79516602 193.40820312 C108.89739516 205.61051099 111.24721811 217.89020444 113.40283203 230.56542969 C114.37962131 236.18336573 115.47222022 241.7781744 116.5625 247.375 C117.1415637 250.36523876 117.71906048 253.35571091 118.29052734 256.34741211 C118.83315119 259.14100996 119.39305966 261.92909432 119.96337891 264.71704102 C122.47380143 277.16751232 124.16610566 289.53574784 125.25 302.1875 C125.33371857 303.14012726 125.41743713 304.09275452 125.50369263 305.07424927 C127.91934837 333.10310144 129.50224612 362.25621464 124 390 C123.7848877 391.16611816 123.56977539 392.33223633 123.34814453 393.53369141 C120.11338932 411.0382629 116.05807834 428.29416177 111.5 445.5 C111.16838867 446.76827133 111.16838867 446.76827133 110.83007812 448.06216431 C106.85208199 463.19267769 101.49504026 477.47470039 95.125 491.75 C90.96435022 501.28008165 88.08321165 511.17470618 85.23291016 521.15527344 C81.86970502 532.86513038 78.20573855 543.91040297 71.5625 554.1875 C70.58703938 555.73945752 69.61177702 557.29153966 68.63671875 558.84375 C68.17700684 559.56691406 67.71729492 560.29007813 67.24365234 561.03515625 C65.74883259 563.39681887 64.30413445 565.78559337 62.875 568.1875 C62.41996094 568.94160156 61.96492188 569.69570313 61.49609375 570.47265625 C60.34019119 572.42531671 59.21284429 574.3948981 58.09765625 576.37109375 C54.01122336 583.52802691 49.56004019 590.1477559 44.375 596.5625 C43.84898193 597.21686035 43.32296387 597.8712207 42.78100586 598.54541016 C31.66907253 611.96405022 15.45732371 621.952672 -2 624 C-5.95410406 624.26517567 -9.91162961 624.45244204 -13.87280273 624.57104492 C-17.90921708 624.71764796 -21.63846242 625.08815986 -25.57421875 626.01171875 C-32.74241053 627.54428621 -40.01857765 627.34898161 -47.3125 627.3125 C-48.06466797 627.31067719 -48.81683594 627.30885437 -49.59179688 627.30697632 C-61.92332973 627.25671904 -73.9090724 626.60317492 -86 624 C-87.18118408 623.75056641 -87.18118408 623.75056641 -88.38623047 623.49609375 C-115.92095705 617.42349732 -136.68943892 598.3648386 -153.35546875 576.43359375 C-155.95488728 573.01938898 -158.7053163 569.75494969 -161.5 566.5 C-163.33793521 564.33720526 -165.16985953 562.16939236 -167 560 C-167.680625 559.1970752 -167.680625 559.1970752 -168.375 558.37792969 C-184.42351376 539.28612532 -193.65973175 517.62604767 -202.09130859 494.41748047 C-204.86336832 486.85588844 -207.89737215 479.47437651 -211.1875 472.125 C-229.86682509 429.85602761 -238.14166279 381.24826134 -241.73175049 335.3639679 C-241.89651698 333.29772304 -242.07082078 331.23217913 -242.26119995 329.1681366 C-243.09263284 319.71037834 -243.18161487 310.29849611 -243.203125 300.8125 C-243.20595238 299.95594818 -243.20877975 299.09939636 -243.21169281 298.21688843 C-243.22659553 293.67063096 -243.23587736 289.12440442 -243.24023438 284.578125 C-243.24458984 280.88791864 -243.25837997 277.19794993 -243.28125 273.5078125 C-243.41491936 251.47093242 -243.1026954 229.8623876 -240 208 C-239.87993591 207.15101135 -239.75987183 206.30202271 -239.63616943 205.42730713 C-238.91661383 200.52561254 -238.04146794 195.6684608 -237.0625 190.8125 C-236.92159943 190.09526764 -236.78069885 189.37803528 -236.63552856 188.6390686 C-234.0283152 175.48643856 -230.61017681 162.57880564 -226.9375 149.6875 C-226.68823761 148.80816803 -226.43897522 147.92883606 -226.18215942 147.02285767 C-223.05105606 136.05916969 -219.45527867 125.49889054 -215 115 C-214.37586857 113.49497137 -213.75209048 111.98979608 -213.12890625 110.484375 C-212.60704215 109.23946956 -212.08491023 107.99467636 -211.5625 106.75 C-209.73034129 102.37281179 -207.9697957 97.99445483 -206.421875 93.5078125 C-194.45717301 58.89248917 -174.04379212 33.60132039 -145 12 C-144.154375 11.34644531 -143.30875 10.69289063 -142.4375 10.01953125 C-130.90234815 1.27804899 -118.13972933 -6.07116233 -105.25 -12.625 C-104.63165283 -12.94339844 -104.01330566 -13.26179688 -103.3762207 -13.58984375 C-94.51700637 -17.95870546 -85.77787965 -18.52517069 -76.0625 -19.125 C-75.40814972 -19.16602844 -74.75379944 -19.20705688 -74.07962036 -19.24932861 C-43.66207175 -21.12800932 -23.78479963 -20.99696704 0 0 Z " fill="#FDD000" transform="translate(1306,115)"/>
<path d="M0 0 C30.36341258 -0.76985849 56.93569059 5.52712348 81.46044922 24.02001953 C83.98660025 25.89071763 86.56578793 27.64880129 89.18237305 29.38964844 C96.96027081 34.59740934 103.29467817 40.60359443 109.37060547 47.70751953 C117.57879228 57.232834 126.66874358 66.04272284 136.50341797 73.86376953 C162.33600751 94.76535195 174.80715705 120.92475791 186.25537109 151.50634766 C188.60753799 157.78819532 191.01724455 164.02537822 193.62060547 170.20751953 C198.98249451 183.52032405 201.73044078 197.81286499 204.83935547 211.78100586 C206.00380025 216.9523883 207.23076254 222.07787898 208.64819336 227.18554688 C212.48628456 241.11400821 214.95078621 254.89015584 216.80810547 269.20751953 C218.6975028 283.62703019 221.01446301 297.66528699 224.72764587 311.73898315 C226.23919655 318.57807645 226.3991506 325.22463181 226.40673828 332.19238281 C226.41170319 333.29108704 226.41666809 334.38979126 226.42178345 335.52178955 C226.43635767 339.14881018 226.44320247 342.77578695 226.44873047 346.40283203 C226.45155785 347.6499786 226.45438522 348.89712517 226.45729828 350.18206406 C226.47073754 356.11357828 226.48063032 362.04507927 226.48450017 367.97660649 C226.48895516 374.76371548 226.50638695 381.55062049 226.53550076 388.33766758 C226.56000504 394.26163643 226.56745834 400.18553932 226.56917572 406.10955429 C226.57217113 408.6041868 226.58009199 411.09881911 226.5933609 413.59341812 C226.66800403 428.71749048 225.84778918 443.1795856 223.24560547 458.08251953 C223.02642904 459.42983224 222.80958252 460.77752702 222.59558105 462.12567139 C221.4658019 469.209809 220.19244659 476.26998927 218.91943359 483.32958984 C218.48074728 485.77288188 218.04937451 488.21750205 217.62646484 490.66357422 C213.9397435 511.85344403 208.10943883 532.12809583 201.64404297 552.61328125 C200.44388424 556.42457159 199.3038523 560.25094311 198.18310547 564.08642578 C194.95266488 574.85398845 190.74591705 584.60501592 185.30810547 594.45751953 C184.74687988 595.47450928 184.1856543 596.49149902 183.60742188 597.53930664 C172.39386732 616.92411566 155.32094648 626.3847638 136.18310547 636.44189453 C133.15243788 638.08192266 133.15243788 638.08192266 130.05810547 640.22314453 C125.56495572 643.19361575 121.1637878 643.51367727 115.93310547 644.08251953 C114.43685414 644.24776558 112.94075628 644.41440776 111.44482422 644.58251953 C110.78313232 644.65470703 110.12144043 644.72689453 109.43969727 644.80126953 C107.73251928 645.02010441 106.03274418 645.29698518 104.33789062 645.59667969 C77.85494816 649.75750832 57.854333 641.3662999 34.34765625 630.51025391 C31.69580421 629.28972575 29.03557701 628.09328143 26.36669922 626.91064453 C10.62232784 619.85831055 -3.57693532 611.39421845 -15.75439453 599.08251953 C-16.58197266 598.27943359 -17.40955078 597.47634766 -18.26220703 596.64892578 C-32.48002149 582.00769679 -42.92397347 563.61340978 -53.51611328 546.32080078 C-55.62138067 542.8926931 -57.76678417 539.49705432 -59.96142578 536.12548828 C-60.48349609 535.31845459 -61.00556641 534.5114209 -61.54345703 533.67993164 C-62.50230671 532.20247336 -63.46871205 530.72986439 -64.44580078 529.2644043 C-73.18457785 515.74033067 -78.627 500.58064091 -83.87939453 485.45751953 C-86.14387412 478.98937206 -88.42753372 472.52850969 -90.75439453 466.08251953 C-91.11180725 465.08581238 -91.11180725 465.08581238 -91.47644043 464.06896973 C-94.57118576 455.54461644 -98.42534826 447.91060869 -102.91860962 440.0662384 C-107.68234611 431.6454081 -111.34612101 422.83756623 -115.00439453 413.89501953 C-115.67791501 412.27287636 -116.35239354 410.65113064 -117.02783203 409.02978516 C-118.65252868 405.1209435 -120.25880691 401.20492657 -121.85543823 397.2845459 C-122.7207761 395.16486911 -123.59448717 393.04881008 -124.46948242 390.93310547 C-127.33642632 383.95519053 -129.91253601 377.04496704 -131.69189453 369.70751953 C-131.93004883 368.74201172 -132.16820312 367.77650391 -132.41357422 366.78173828 C-134.88165515 356.29954128 -136.693753 345.69429178 -138.50439453 335.08251953 C-138.72758865 333.77580292 -138.72758865 333.77580292 -138.95529175 332.44268799 C-139.38876456 329.88603819 -139.81541575 327.32836307 -140.23876953 324.77001953 C-140.36250443 324.03190033 -140.48623932 323.29378113 -140.61372375 322.53329468 C-141.01722239 320.05279424 -141.38763196 317.56872207 -141.75439453 315.08251953 C-141.92842804 313.97894608 -142.10246155 312.87537262 -142.2817688 311.73835754 C-144.00703689 299.73534662 -144.08203913 287.82923738 -144.09033203 275.71923828 C-144.09678151 273.47508159 -144.10351135 271.23092569 -144.11050415 268.98677063 C-144.12241181 264.29951027 -144.12619202 259.61232322 -144.125 254.92504883 C-144.12483792 250.17456765 -144.13866128 245.42447399 -144.16601562 240.67407227 C-144.45451964 189.86725604 -144.45451964 189.86725604 -139.75439453 168.08251953 C-139.46093125 166.62866337 -139.1674737 165.17480605 -138.87402344 163.72094727 C-136.80378442 154.12657726 -132.48256137 145.45595762 -128.32080078 136.62158203 C-126.36534842 132.45752569 -124.56969844 128.26012552 -122.85913086 123.99072266 C-115.69010231 106.14543253 -105.90335996 89.38543021 -95.75439453 73.08251953 C-95.19880859 72.18533203 -94.64322266 71.28814453 -94.07080078 70.36376953 C-88.98130588 62.25963377 -83.63380731 54.32040726 -78.29199219 46.38134766 C-76.82071423 44.18167264 -75.36972262 41.96985443 -73.92236328 39.75439453 C-61.01364805 20.18919233 -45.070631 8.00532865 -22.12939453 2.27001953 C-14.7519512 0.75897692 -7.50630509 0.2248831 0 0 Z " fill="#FDD000" transform="translate(675.75439453125,129.91748046875)"/>
<path d="M0 0 C5.47121687 -0.08781478 10.66742575 0.40992082 16.05981445 1.30761719 C16.88924561 1.44474121 17.71867676 1.58186523 18.57324219 1.72314453 C59.296754 8.68916236 93.11853514 24.48852449 117.4387207 58.38964844 C119.58266452 61.42657579 121.59955399 64.52313856 123.55981445 67.68261719 C126.3765396 72.21993624 129.51780917 76.39124189 132.81176758 80.59155273 C142.612487 93.19117359 151.57116612 106.50595866 159.99731445 120.05761719 C160.36131348 120.6322168 160.7253125 121.20681641 161.1003418 121.79882812 C170.69722282 136.96929835 177.80638556 152.41019225 182.93481445 169.62011719 C183.22219482 170.58390793 183.22219482 170.58390793 183.51538086 171.56716919 C186.53917746 181.80078991 188.98409854 191.93477777 190.05981445 202.55761719 C190.14432861 203.38310059 190.22884277 204.20858398 190.31591797 205.05908203 C191.16740427 214.33045466 191.28811384 223.62380219 191.48144531 232.92636108 C191.68328624 242.18556278 192.24816008 251.19005555 193.55981445 260.37011719 C198.68304959 298.40588158 196.26706694 335.65860921 178.05981445 369.91699219 C176.92208926 372.20917383 176.0970345 374.5200192 175.24731445 376.93261719 C173.15658645 382.31961394 169.90790277 386.51783239 166.35668945 391.03808594 C164.12332922 393.89634333 162.0599154 396.82509622 159.99731445 399.80761719 C150.32035838 413.01381606 136.96863234 420.17774292 120.99731445 423.05761719 C116.79735097 423.41649038 112.64746034 423.43524777 108.43481445 423.37011719 C107.38874023 423.37333984 106.34266602 423.3765625 105.26489258 423.37988281 C92.38055379 423.29190781 81.7062186 420.1977667 69.99731445 415.05761719 C69.32394043 414.76612793 68.65056641 414.47463867 67.95678711 414.17431641 C57.82057471 409.74736339 48.45602097 404.47088086 39.0949707 398.59277344 C35.81756536 396.54017357 32.4894021 394.66052781 29.05981445 392.87011719 C18.97774998 387.47100711 10.8813361 380.32077244 2.99731445 372.12011719 C-2.96443358 366.03019516 -8.86568678 360.29566075 -15.56518555 355.03027344 C-43.86689181 332.1258477 -58.47215607 291.98175123 -70.6315918 258.74902344 C-71.50028913 256.41022292 -72.40033148 254.08263111 -73.3425293 251.77246094 C-78.23295873 239.77678753 -80.6615672 227.42479983 -82.72021484 214.68847656 C-83.53560863 209.95331105 -84.72629422 205.45149323 -86.14916992 200.86425781 C-100.45115332 154.63883491 -97.52861812 99.21471914 -78.00268555 55.05761719 C-77.67365234 54.2901416 -77.34461914 53.52266602 -77.00561523 52.73193359 C-67.64950247 30.95541788 -53.0800108 15.73608798 -31.01831055 6.18652344 C-20.91969967 2.40608491 -10.77272963 0.30993102 0 0 Z " fill="#FDCF00" transform="translate(230.002685546875,484.9423828125)"/>
<path d="M0 0 C0.81339844 0.3815625 1.62679688 0.763125 2.46484375 1.15625 C10.41002713 4.97581427 18.17280444 9.26230514 24 16 C24.33 16.99 24.66 17.98 25 19 C25.59296875 19.29390625 26.1859375 19.5878125 26.796875 19.890625 C35.25860484 24.15149605 40.58575146 36.00574107 44.91259766 44.0078125 C46.08971111 46.16435623 47.29777873 48.30148116 48.51171875 50.4375 C57.980063 67.15103189 65.14419415 81.73917698 65.16796875 101.28125 C65.17129715 102.25300171 65.17462555 103.22475342 65.17805481 104.22595215 C65.18309622 106.27660655 65.185464 108.32726909 65.18530273 110.37792969 C65.18747398 113.46303424 65.20561768 116.54777175 65.22460938 119.6328125 C65.30475363 147.34206142 60.10840717 166.50951015 45.66699219 190.21923828 C43.8346102 193.2758919 42.11271339 196.37760288 40.41772461 199.51171875 C35.76347671 208.10752943 30.31709533 216.02146007 24.53955078 223.89746094 C23.03223321 225.95597964 21.54468615 228.027691 20.05859375 230.1015625 C13.06404336 239.75520779 5.3380045 248.48902302 -3 257 C-3.57532471 257.59578857 -4.15064941 258.19157715 -4.7434082 258.80541992 C-16.85758313 271.19114547 -31.7857197 279.03506526 -47 287 C-48.78442171 287.94554431 -50.5682917 288.89213065 -52.3515625 289.83984375 C-56.89094382 292.24637198 -61.43674621 294.63904277 -66 297 C-66.67571045 297.35642578 -67.3514209 297.71285156 -68.04760742 298.08007812 C-95.91367266 312.50343757 -138.48796608 315.56270284 -168.421875 306.45703125 C-175.90540327 303.87107541 -182.83992327 300.26391038 -189.83959961 296.59985352 C-192.08474102 295.42587018 -194.33759299 294.26779882 -196.59179688 293.11132812 C-198.03172405 292.36549785 -199.47119476 291.61878547 -200.91015625 290.87109375 C-201.91321556 290.35536049 -201.91321556 290.35536049 -202.9365387 289.82920837 C-206.06872279 288.18073449 -208.60602386 286.60812289 -211 284 C-212.6660841 283.39566334 -214.35801823 282.86059337 -216.0625 282.375 C-230.44722541 277.43382775 -238.2985543 263.27359216 -244.85058594 250.46044922 C-250.07284269 239.28162519 -252.15784242 227.13453271 -252.375 214.875 C-252.41238281 214.12863281 -252.44976563 213.38226562 -252.48828125 212.61328125 C-252.72123316 196.4878325 -246.31174804 179.84295366 -241.13574219 164.77758789 C-240.24608044 162.17603841 -239.38432864 159.56626918 -238.5234375 156.95507812 C-234.78906106 145.85957523 -230.13183811 135.96513676 -224 126 C-223.48775879 125.15477783 -222.97551758 124.30955566 -222.44775391 123.4387207 C-221.22428193 121.45815424 -219.96941843 119.50562386 -218.6875 117.5625 C-218.0056665 116.52246826 -218.0056665 116.52246826 -217.31005859 115.46142578 C-215.88382485 113.30042132 -214.44489979 111.14856258 -213 109 C-212.52159668 108.28666504 -212.04319336 107.57333008 -211.55029297 106.83837891 C-205.24968784 97.50859619 -198.50813293 88.82602516 -191.01953125 80.421875 C-188.40457948 77.48687464 -185.93811494 74.45941598 -183.5 71.375 C-176.51436803 62.75552777 -168.46231091 54.88637846 -159.99609375 47.72265625 C-157.57595657 45.63404471 -155.2686762 43.43740321 -152.9375 41.25 C-129.0630787 19.70795093 -99.45572905 4.35780428 -68 -2 C-66.34170166 -2.34490479 -66.34170166 -2.34490479 -64.64990234 -2.69677734 C-41.82197419 -7.38292743 -21.52991614 -10.48413308 0 0 Z " fill="#FDCF00" transform="translate(1855,654)"/>
<path d="M0 0 C0.68964844 0.06703125 1.37929687 0.1340625 2.08984375 0.203125 C8.14396622 0.96870455 12.92956388 3.30812446 18.1875 6.25 C18.85257568 6.62060547 19.51765137 6.99121094 20.20288086 7.37304688 C27.98379145 11.89716932 33.59418418 17.05518917 38.375 24.6875 C38.8397876 25.42589111 39.3045752 26.16428223 39.78344727 26.92504883 C52.40481701 47.42535654 57.18106171 66.81219052 57.82421875 90.8125 C57.89725923 93.3282148 58.09617295 95.56691424 58.51953125 98.0625 C59.83556312 106.10848345 58.49876412 113.97448847 57.40087891 121.98144531 C57.12574773 123.99452896 56.86113905 126.00879989 56.59765625 128.0234375 C55.72784979 134.47933436 54.7653445 140.72927824 53 147 C52.62837364 148.38527389 52.25730323 149.77069702 51.88671875 151.15625 C50.61847832 155.77861087 49.31257693 160.39006782 48 165 C47.70005127 166.07024414 47.70005127 166.07024414 47.39404297 167.16210938 C43.65697019 180.38991329 39.06779943 194.28961758 28.1875 203.375 C23.28340321 207.58503467 18.51531001 211.70407574 14.9375 217.125 C11.21511878 222.64853342 6.92435478 225.64186311 0.609375 227.49609375 C-15.75261408 230.65581919 -29.60317936 224.76353287 -43 216 C-50.93441278 210.28290801 -56.08903942 202.953751 -60.65234375 194.4140625 C-62.1582726 191.7164856 -63.81255368 189.15016067 -65.5 186.5625 C-83.46374529 158.52343671 -83.52197904 119.10437515 -78 87 C-77.83870605 86.0404541 -77.67741211 85.0809082 -77.51123047 84.09228516 C-74.53694915 66.85527501 -70.73238778 50.12675043 -61.0625 35.25 C-60.57910156 34.49203125 -60.09570312 33.7340625 -59.59765625 32.953125 C-58 31 -58 31 -55.87109375 29.984375 C-55.25363281 29.65953125 -54.63617187 29.3346875 -54 29 C-53.63669886 27.67451851 -53.3078103 26.33945575 -53 25 C-43.81346683 12.75812432 -31.92693038 4.52818354 -17 1 C-15.81083984 0.70609375 -15.81083984 0.70609375 -14.59765625 0.40625 C-9.35965835 -0.79100666 -5.3285516 -1.14183249 0 0 Z " fill="#0D0C0B" transform="translate(1042,994)"/>
<path d="M0 0 C0 3 0 3 -1.21484375 4.5756073 C-1.78332031 5.13742203 -2.35179687 5.69923676 -2.9375 6.27807617 C-3.89849609 7.23873238 -3.89849609 7.23873238 -4.87890625 8.21879578 C-5.57886719 8.90327286 -6.27882813 9.58774994 -7 10.29296875 C-7.71027344 10.99899734 -8.42054687 11.70502594 -9.15234375 12.43244934 C-11.42796996 14.69125019 -13.71379365 16.93941307 -16 19.1875 C-17.54234842 20.71480664 -19.08402406 22.242793 -20.625 23.77148438 C-24.40888829 27.52225221 -28.20120662 31.26433217 -32 35 C-32.66 34.67 -33.32 34.34 -34 34 C-24.20120793 23.33278605 -14.1374475 13.10476903 -3.44189453 3.33422852 C-2.26947442 2.24935281 -1.12949639 1.12949639 0 0 Z " fill="#796300" transform="translate(1702,695)"/>
<path d="M0 0 C0 3 0 3 -2.11132812 5.4519043 C-3.07697101 6.41707201 -4.05087603 7.37401783 -5.03125 8.32421875 C-5.54175903 8.83048294 -6.05226807 9.33674713 -6.57824707 9.85835266 C-8.21193407 11.47523405 -9.85573744 13.08138126 -11.5 14.6875 C-12.6087547 15.78121031 -13.71683647 16.87560326 -14.82421875 17.97070312 C-17.54173139 20.65512158 -20.26836361 23.3299581 -23 26 C-23.66 25.67 -24.32 25.34 -25 25 C-17.00333285 16.24452502 -8.96402121 7.77491636 0 0 Z " fill="#816900" transform="translate(1148,137)"/>
<path d="M0 0 C0 3 0 3 -2.11132812 5.4519043 C-3.07697101 6.41707201 -4.05087603 7.37401783 -5.03125 8.32421875 C-5.54175903 8.83048294 -6.05226807 9.33674713 -6.57824707 9.85835266 C-8.21193407 11.47523405 -9.85573744 13.08138126 -11.5 14.6875 C-12.6087547 15.78121031 -13.71683647 16.87560326 -14.82421875 17.97070312 C-17.54173139 20.65512158 -20.26836361 23.3299581 -23 26 C-23.66 25.67 -24.32 25.34 -25 25 C-10.69358182 9.36366394 -10.69358182 9.36366394 -4.55078125 4.296875 C-2.93678025 2.94713109 -1.46699069 1.50687865 0 0 Z " fill="#7B6400" transform="translate(428,1034)"/>
<path d="M0 0 C0.66 0.33 1.32 0.66 2 1 C-2.29 5.29 -6.58 9.58 -11 14 C-11 10.30159372 -10.17133056 9.68584567 -7.75 7 C-7.14671875 6.319375 -6.5434375 5.63875 -5.921875 4.9375 C-4.06233388 3.06284066 -2.15205789 1.52358081 0 0 Z " fill="#806900" transform="translate(176,505)"/>
</svg>
