<?xml version="1.0" encoding="UTF-8"?>
<svg version="1.1" xmlns="http://www.w3.org/2000/svg" width="2000" height="2000">
<path d="M0 0 C2.9370713 0.01937076 5.87408199 0.02317934 8.81120872 0.02671432 C12.37465522 0.03188138 15.93804787 0.04631987 19.50146484 0.06115723 C20.79313568 0.0654071 22.08480652 0.06965698 23.4156189 0.07403564 C29.54838173 0.12243737 35.57745438 0.31067037 41.66973877 1.03894043 C43.86954394 1.27267804 46.04031855 1.36045111 48.25146484 1.40490723 C77.7404455 2.00317244 108.06916571 5.55655211 136.79052734 12.26428223 C137.94568848 12.53047363 139.10084961 12.79666504 140.29101562 13.07092285 C172.04435452 20.51462129 203.02640897 30.92737967 232.79052734 44.26428223 C233.77649902 44.705625 234.7624707 45.14696777 235.77832031 45.60168457 C251.14723708 52.60334311 265.01770135 61.53123827 278.79052734 71.26428223 C279.46438477 71.73720703 280.13824219 72.21013184 280.83251953 72.6973877 C289.506282 78.85071337 297.09753889 86.07593493 304.74755859 93.43225098 C307.3850453 95.96082149 310.06948242 98.40605613 312.83349609 100.79553223 C316.80749275 104.24037598 320.57433475 107.85670697 324.29052734 111.57678223 C325.27098022 112.55626831 325.27098022 112.55626831 326.27124023 113.55554199 C330.51033229 117.84108407 334.36705372 122.27407582 338.03662109 127.06115723 C343.62884672 134.08569008 350.68193247 140.66504493 358.02490234 145.83850098 C358.60755859 146.30900879 359.19021484 146.7795166 359.79052734 147.26428223 C359.79052734 147.92428223 359.79052734 148.58428223 359.79052734 149.26428223 C360.45052734 149.26428223 361.11052734 149.26428223 361.79052734 149.26428223 C372.23066558 160.08692553 379.88725208 173.62197544 387.41552734 186.51428223 C393.11902819 196.27022702 398.70278 205.41101098 406.88818359 213.29943848 C414.25812611 220.91151463 419.69523284 229.53219069 424.68164062 238.8182373 C428.36245153 245.62795057 432.3705028 252.20427781 436.47802734 258.76428223 C437.09572998 259.75468506 437.71343262 260.74508789 438.34985352 261.76550293 C441.19383497 266.28661653 444.08527083 270.66276951 447.31005859 274.92053223 C455.20269286 286.10610518 458.96297811 300.26250064 463.24630737 313.13168335 C467.50631759 325.91138662 471.92710198 338.61496489 476.72802734 351.20178223 C477.18226074 352.39327881 477.63649414 353.58477539 478.10449219 354.81237793 C479.88307916 359.43914771 481.67351321 364.0534097 483.63037109 368.60803223 C489.02807796 381.24388545 491.54432574 394.46878249 494.03662109 407.92834473 C494.24665771 409.05587158 494.45669434 410.18339844 494.6730957 411.34509277 C495.06960137 413.50071019 495.45545947 415.65832862 495.82788086 417.8182373 C496.85642002 423.48806506 498.24778585 428.82273965 500.14233398 434.26843262 C502.64682606 441.61952863 504.68406434 449.04146195 506.56787109 456.57678223 C506.90315104 457.90639043 507.23852656 459.23597454 507.57398987 460.5655365 C508.45579199 464.07344372 509.32676981 467.5839381 510.19302368 471.09571457 C510.5515266 472.54885945 510.91080781 474.00181253 511.27084351 475.4545784 C516.02093633 494.6230931 520.26118351 513.67050107 522.9074707 533.25915527 C525.70318448 553.87039591 530.1610448 574.64629447 537.46630859 594.15490723 C541.72348187 606.71848486 542.29316526 618.73059714 542.23657227 631.87512207 C542.22810008 634.86362577 542.25685688 637.85018653 542.28857422 640.83850098 C542.33895019 653.78258792 540.91533948 665.71468578 537.79052734 678.26428223 C537.58507294 679.10082336 537.37961853 679.9373645 537.16793823 680.79925537 C535.63438008 686.9800373 533.98213926 693.12511903 532.29052734 699.26428223 C532.03307739 700.20506622 531.77562744 701.14585022 531.51037598 702.11514282 C525.06371776 725.59893932 517.67071681 748.78343863 508.73144531 771.44470215 C505.71486297 779.1943601 503.19005648 787.09464576 500.66552734 795.01428223 C500.34239059 796.02697174 500.34239059 796.02697174 500.01272583 797.06011963 C499.5855841 798.39885098 499.15848481 799.73759588 498.73143005 801.07635498 C494.12998454 815.49939688 489.09832558 829.4932837 482.79052734 843.26428223 C482.33790527 844.25831055 481.8852832 845.25233887 481.41894531 846.27648926 C475.44353554 859.37516044 469.32891479 872.40575273 462.97802734 885.32678223 C462.47577637 886.36560547 461.97352539 887.40442871 461.45605469 888.47473145 C455.8345974 899.78179698 448.33418147 909.04651474 439.79052734 918.26428223 C438.32974615 919.88708209 436.87142641 921.51210092 435.41552734 923.13928223 C433.06214917 925.76498568 430.69388539 928.36646799 428.27099609 930.92834473 C418.99805491 940.78508748 410.68376213 951.4209055 402.79443359 962.41271973 C392.89690202 976.14274154 381.32299447 989.31179193 366.79052734 998.26428223 C365.27652344 999.20400879 365.27652344 999.20400879 363.73193359 1000.16271973 C344.34146304 1011.29958477 322.71321178 1017.5679662 300.79052734 1021.26428223 C299.49888672 1021.50791504 298.20724609 1021.75154785 296.87646484 1022.00256348 C263.00207977 1027.6228057 230.67263178 1019.19667011 199.26171875 1007.19396973 C196.67054404 1006.21914328 194.06676321 1005.28608677 191.45849609 1004.35803223 C172.52417417 997.53792528 152.75416141 987.24362573 139.79052734 971.26428223 C139.79052734 970.60428223 139.79052734 969.94428223 139.79052734 969.26428223 C139.13052734 969.26428223 138.47052734 969.26428223 137.79052734 969.26428223 C136.37346233 967.71539721 135.03243238 966.09666689 133.72802734 964.45178223 C132.92107422 963.44244629 132.11412109 962.43311035 131.28271484 961.39318848 C130.65961426 960.60839111 130.65961426 960.60839111 130.02392578 959.80773926 C128.16219561 957.47799695 126.25450767 955.18662234 124.35302734 952.88928223 C121.56063935 949.48817298 118.8534459 946.04196758 116.20947266 942.52429199 C110.91003282 935.48814041 105.12871053 929.05439432 99.09033203 922.64807129 C96.22590585 919.59856573 93.47996674 916.46847453 90.79052734 913.26428223 C89.99517578 912.3438916 89.19982422 911.42350098 88.38037109 910.47521973 C79.59224107 900.0103964 73.31575396 888.21726933 66.79052734 876.26428223 C59.21975834 862.5322668 50.2087587 851.20961519 39.04052734 840.32678223 C38.01507195 839.31644052 36.99032967 838.30537452 35.96630859 837.2935791 C34.09072056 835.44212784 32.21056651 833.59584196 30.32666016 831.75280762 C26.06719743 827.57330207 21.9379374 823.3545766 17.97802734 818.88928223 C14.36202147 814.88046619 10.64863654 811.27578716 6.52099609 807.80725098 C3.98394804 805.54509752 1.96413968 802.87261703 -0.20947266 800.26428223 C-2.02386179 798.58073847 -3.89652671 796.97975688 -5.77978516 795.37365723 C-8.77402261 792.77415847 -11.67698066 790.08490588 -14.58447266 787.38928223 C-15.14787354 786.872771 -15.71127441 786.35625977 -16.29174805 785.82409668 C-18.84197054 783.48323999 -21.34202738 781.13011344 -23.77587891 778.66662598 C-30.21871338 772.3087053 -36.66695308 769.94329724 -45.20947266 767.26428223 C-46.6807348 766.67035563 -48.1413934 766.0487391 -49.58447266 765.38928223 C-50.29216797 765.0670166 -50.99986328 764.74475098 -51.72900391 764.41271973 C-53.64475855 763.52574041 -55.55841837 762.63423572 -57.47119141 761.74084473 C-80.80157955 751.04311376 -104.63721829 744.05994655 -130.39697266 743.76428223 C-132.06240112 743.73624512 -132.06240112 743.73624512 -133.76147461 743.7076416 C-141.31882014 743.76684792 -147.3091702 745.23347715 -154.20947266 748.26428223 C-154.94399658 748.57752441 -155.67852051 748.8907666 -156.43530273 749.21350098 C-158.4829871 750.11169692 -160.50417607 751.05095969 -162.52197266 752.01428223 C-163.25359619 752.36152344 -163.98521973 752.70876465 -164.73901367 753.06652832 C-170.31577259 755.75206145 -175.67323904 758.72934122 -181.01025391 761.86584473 C-184.44482873 763.85864914 -187.93446408 765.73514941 -191.43994141 767.60021973 C-192.57181885 768.20269531 -193.70369629 768.8051709 -194.86987305 769.42590332 C-197.11774832 770.61866639 -199.36810051 771.80677754 -201.62133789 772.98937988 C-215.81979472 780.53792655 -226.9499614 788.98235243 -237.39697266 801.17053223 C-239.45980561 803.55345995 -241.58367963 805.87490067 -243.70947266 808.20178223 C-246.52894481 811.31653694 -249.18349015 814.47049991 -251.70947266 817.82678223 C-263.87754798 833.61762543 -279.7341931 843.06186774 -297.49658203 851.32873535 C-304.42478337 854.65758428 -310.72508324 858.71116784 -317.08447266 863.01428223 C-318.14512939 863.72656982 -319.20578613 864.43885742 -320.29858398 865.17272949 C-326.52662024 869.37827148 -332.62214151 873.68488143 -338.58056641 878.26428223 C-348.67132567 885.94105599 -359.38676267 892.68155996 -370.20947266 899.26428223 C-371.0734668 899.79134766 -371.93746094 900.31841309 -372.82763672 900.8614502 C-384.02312943 907.66535172 -395.12409094 914.17144578 -407.20947266 919.26428223 C-408.31419922 919.77217285 -409.41892578 920.28006348 -410.55712891 920.80334473 C-422.75248662 925.97874136 -435.76298881 927.86730805 -448.74017334 930.12567139 C-455.14166796 931.2412221 -461.52388409 932.44834921 -467.90625 933.66784668 C-473.19967699 934.67898501 -478.49881295 935.65846225 -483.79882812 936.63439941 C-485.87688618 937.01817821 -487.95423912 937.40583555 -490.03027344 937.80041504 C-490.85382324 937.95606934 -491.67737305 938.11172363 -492.52587891 938.27209473 C-493.19949463 938.40116211 -493.87311035 938.53022949 -494.56713867 938.66320801 C-502.11468936 939.90319936 -509.5864361 940.54650442 -517.22900391 940.82678223 C-518.3322551 940.86777542 -519.43550629 940.90876862 -520.57218933 940.95100403 C-536.25504218 941.46851187 -551.94672961 941.45143595 -567.63647461 941.44958496 C-572.15663526 941.44948223 -576.67664276 941.46329638 -581.19676685 941.48035717 C-584.73582144 941.49153483 -588.2748391 941.49350265 -591.81390953 941.49297523 C-593.4806135 941.4941404 -595.14731891 941.49847782 -596.8140049 941.5063076 C-608.89423014 941.55790414 -621.03130718 941.48179558 -632.33447266 936.70178223 C-633.2505127 936.31868896 -633.2505127 936.31868896 -634.18505859 935.92785645 C-640.17453475 933.37911134 -646.03989154 930.54817494 -651.89526367 927.7076416 C-655.79640418 925.82682478 -659.68834332 924.03313846 -663.72900391 922.47131348 C-685.65515067 913.97880852 -712.76375684 899.83739013 -726.58447266 880.26428223 C-727.05506104 879.61419189 -727.52564941 878.96410156 -728.01049805 878.29431152 C-730.68702189 874.55604111 -733.18198325 870.74597423 -735.57739258 866.82312012 C-741.90950909 856.48446926 -750.186958 848.76503863 -759.35009766 840.88928223 C-765.44049324 835.56658357 -770.46020281 829.89699158 -775.09228516 823.26428223 C-776.51517306 821.24808683 -777.99091671 819.26827218 -779.51416016 817.32678223 C-787.39275166 807.18078686 -792.48031829 795.80065473 -797.84912109 784.18859863 C-799.66300312 780.28933825 -801.5395717 776.42478061 -803.45947266 772.57678223 C-803.92716064 771.63258423 -803.92716064 771.63258423 -804.40429688 770.66931152 C-806.25260223 766.9925907 -808.2654796 763.4658847 -810.40454102 759.95153809 C-814.97658241 752.36814983 -817.40173797 744.91545337 -819.20947266 736.26428223 C-819.40105957 735.41011719 -819.59264648 734.55595215 -819.79003906 733.67590332 C-823.34481713 717.75282494 -825.30921162 701.81782301 -826.86572266 685.59997559 C-827.01526803 684.0440487 -827.1650039 682.48814012 -827.31494141 680.93225098 C-827.38733032 680.17980606 -827.45971924 679.42736115 -827.53430176 678.65211487 C-828.0803197 673.14980308 -828.87365555 667.71161976 -829.7565918 662.25280762 C-833.78271014 635.68476737 -832.9637795 608.3153131 -830.77197266 581.63146973 C-830.34133371 576.3052225 -830.023351 570.98395724 -829.77197266 565.64709473 C-828.67892686 542.68984154 -826.35746212 520.64205139 -820.41699219 498.35339355 C-818.51315794 491.03145977 -817.31896091 483.7604414 -816.33447266 476.26428223 C-813.68110339 456.5181444 -809.18726392 436.45334766 -801.61181641 417.98693848 C-800.25512066 414.38545925 -799.27167242 410.83991778 -798.31933594 407.11901855 C-794.77361999 393.38290984 -788.74606458 381.03305856 -782.63769531 368.30529785 C-780.39145116 363.52252569 -778.47762173 358.64862523 -776.58056641 353.71740723 C-774.69190762 348.9607851 -772.56436228 344.32179997 -770.44824219 339.66296387 C-767.96263904 334.12376983 -765.72731256 328.51232394 -763.54077148 322.84899902 C-753.33270415 296.52251712 -737.43964463 275.81618635 -716.20947266 257.26428223 C-714.33115837 255.55959363 -712.45621769 253.85118126 -710.58447266 252.13928223 C-707.46214524 249.28884287 -704.31303528 246.49318635 -701.08447266 243.76428223 C-694.67286371 238.17534408 -689.27795302 231.62592144 -683.95947266 225.01428223 C-676.90591884 216.29668579 -669.14821253 208.17601959 -661.20947266 200.26428223 C-660.69384766 199.70225098 -660.17822266 199.14021973 -659.64697266 198.56115723 C-651.16415308 189.43290572 -639.76420444 183.33454022 -629.27197266 176.82678223 C-617.01653506 169.21837393 -605.50307162 161.08747295 -594.14697266 152.20178223 C-569.42953311 132.86951857 -544.06744304 122.71897299 -514.38110352 113.07873535 C-503.62021173 109.52202078 -493.0873364 105.42043735 -482.52197266 101.32678223 C-469.8628738 96.4226937 -457.21149747 91.80095001 -444.20947266 87.88928223 C-429.21078259 83.37407022 -414.71297604 77.91189885 -400.1953125 72.04650879 C-371.67222741 60.5445921 -342.03475496 51.71437363 -312.20947266 44.26428223 C-310.90241079 43.93099853 -309.59544886 43.59732274 -308.28857422 43.26330566 C-282.89313601 36.80958836 -257.24267516 32.41035698 -231.38580322 28.23880005 C-230.11976257 28.03451385 -228.85372192 27.83022766 -227.54931641 27.61975098 C-226.29858337 27.41812347 -225.04785034 27.21649597 -223.75921631 27.00875854 C-214.28404126 25.46907989 -204.86137606 23.72498847 -195.44061279 21.88601685 C-172.6530828 17.45100434 -149.60686651 14.97391439 -126.50268555 12.82312012 C-112.90284318 11.5269354 -99.52789927 9.21748189 -86.08764648 6.79870605 C-57.36920156 1.65785323 -29.10986065 -0.23011093 0 0 Z " fill="#000000" transform="translate(1142.20947265625,778.7357177734375)"/>
<path d="M0 0 C-0.35191406 0.51046875 -0.70382812 1.0209375 -1.06640625 1.546875 C-3.95316194 5.79786771 -6.65492217 10.09072611 -9.1875 14.5625 C-11.57455073 18.72669423 -14.12852402 22.67151448 -16.90527344 26.57861328 C-32.94389674 49.18962178 -44.61671079 76.0384626 -51 103 C-53.05516183 111.29836353 -55.37970207 119.21427971 -58.4375 127.1875 C-61.25469736 134.53674283 -63.30689534 141.85517295 -65.08349609 149.51611328 C-66.65797412 156.10483622 -68.79278812 162.34522789 -71.4140625 168.59179688 C-77.2312927 183.13487239 -78.87511431 199.54548924 -81.18261719 214.93310547 C-81.62378277 217.86690528 -82.07696637 220.79867493 -82.53125 223.73046875 C-85.48538182 243.04382417 -87.43633422 262.20080288 -87.4375 281.75 C-87.44059677 283.07581085 -87.44059677 283.07581085 -87.4437561 284.42840576 C-87.43595622 303.38971841 -85.29288613 321.90813321 -82.61083984 340.65234375 C-81.94057683 345.35965934 -81.37679638 350.07670528 -80.82983398 354.79980469 C-78.50638974 374.70128267 -75.1115735 394.49572997 -71.4375 414.1875 C-71.25203613 415.2069873 -71.06657227 416.22647461 -70.87548828 417.27685547 C-69.50483549 424.41818082 -67.42485481 431.15060879 -65 438 C-60.40172836 451.54092262 -60.40172836 451.54092262 -58.6640625 457.59375 C-55.78581234 467.60747244 -52.44542397 477.25456759 -48.53271484 486.91308594 C-45.02546598 495.66729624 -42.09558017 504.57848856 -39.3581543 513.60180664 C-36.35725296 523.07324469 -31.86629502 530.84787258 -25.3125 538.3125 C-20.38644797 544.25443046 -17.00116657 551.06511546 -13.47583008 557.89379883 C-10.2068612 564.13696187 -6.5167979 569.59396989 -2 575 C-1.37867188 575.74515869 -0.75734375 576.49031738 -0.1171875 577.25805664 C3.29440593 581.30386926 6.82912246 584.74468095 11 588 C10.60167969 588.44730469 10.20335937 588.89460938 9.79296875 589.35546875 C9.26316406 589.96003906 8.73335937 590.56460938 8.1875 591.1875 C7.66542969 591.77917969 7.14335938 592.37085938 6.60546875 592.98046875 C4.91018983 595.00227688 4.91018983 595.00227688 3.5859375 597.5234375 C1.81167807 600.29407908 0.15983179 601.61532928 -2.5625 603.4375 C-3.4596875 604.04078125 -4.356875 604.6440625 -5.28125 605.265625 C-7.68107264 606.79654634 -10.10291781 608.25555146 -12.5625 609.6875 C-17.43443293 612.56883394 -22.0995538 615.71528073 -26.75 618.9375 C-27.47131104 619.42758545 -28.19262207 619.9176709 -28.93579102 620.42260742 C-33.14240954 623.3711809 -36.42942813 626.42242033 -39.66357422 630.40893555 C-41.46189339 632.54990121 -43.48221822 634.22644096 -45.6875 635.9375 C-46.54859375 636.6078125 -47.4096875 637.278125 -48.296875 637.96875 C-51.89695074 640.67400923 -55.55146855 643.30015721 -59.20703125 645.9296875 C-63.04005476 648.77094968 -66.70280286 651.79988875 -70.37890625 654.83984375 C-76.60097063 659.96771499 -82.98763085 664.76930935 -89.640625 669.32421875 C-92.02664025 670.97342186 -92.02664025 670.97342186 -94.24609375 672.87109375 C-98.61719535 676.25017229 -103.39671971 678.94132653 -108.14257812 681.7578125 C-111.88686118 684.00754206 -115.47324613 686.3008307 -118.92578125 688.98046875 C-123.46846537 692.46678021 -128.37161821 695.1727577 -133.375 697.9375 C-140.53279513 701.9574109 -147.40890563 706.091204 -154 711 C-159.17031879 714.83546884 -163.1864136 717.2930831 -169.546875 718.3828125 C-174.71017887 719.68186029 -179.31905151 722.52560216 -184 725 C-186.05697111 725.99114779 -188.11699506 726.97442721 -190.18359375 727.9453125 C-192.15384426 729.01188124 -192.15384426 729.01188124 -194.1796875 730.90625 C-197.79789091 733.59234007 -201.45854801 734.90085178 -205.6875 736.375 C-206.51967041 736.67245117 -207.35184082 736.96990234 -208.20922852 737.27636719 C-210.80185332 738.19708044 -213.39982666 739.10084709 -216 740 C-216.80888672 740.28198242 -217.61777344 740.56396484 -218.45117188 740.85449219 C-237.54316772 747.48256798 -256.4935909 751.19928212 -276.5690918 753.35375977 C-280.35001127 753.76302181 -280.35001127 753.76302181 -284.0703125 754.52734375 C-286.84469938 755.20690005 -289.58796787 755.27901297 -292.4375 755.4375 C-298.34847616 755.82540781 -304.12233587 756.53504386 -309.96484375 757.5 C-310.96644531 757.665 -311.96804688 757.83 -313 758 C-314.05058594 758.19207031 -315.10117187 758.38414062 -316.18359375 758.58203125 C-321.2097858 759.13249445 -326.08292623 758.93255418 -331.125 758.6875 C-332.10082031 758.65205078 -333.07664062 758.61660156 -334.08203125 758.58007812 C-335.02691406 758.53689453 -335.97179687 758.49371094 -336.9453125 758.44921875 C-338.22172607 758.39254028 -338.22172607 758.39254028 -339.52392578 758.3347168 C-342.27209467 757.96321812 -344.44543207 757.05752106 -347 756 C-349.04394472 755.5819868 -349.04394472 755.5819868 -351.08203125 755.39453125 C-362.53846283 753.99544873 -371.64852201 750.98617253 -382 746 C-383.78446026 745.29400617 -385.57528487 744.6036465 -387.375 743.9375 C-391.65565513 742.25657718 -395.42338207 740.05651137 -399.31640625 737.62109375 C-402.23322742 735.85911298 -405.22090033 734.31044528 -408.25 732.75 C-418.60929965 727.20386552 -427.89955504 720.61808004 -435.99609375 712.07421875 C-437.88985776 710.11400688 -439.8489907 708.37303661 -441.9375 706.625 C-456.95857265 693.66038372 -467.50685283 676.60809637 -478 660 C-478.45020508 659.2977832 -478.90041016 658.59556641 -479.36425781 657.87207031 C-490.64225674 640.1867094 -499.89737779 620.62459537 -504 600 C-504.63696473 597.32568486 -505.31903872 594.66340095 -506 592 C-506.33149479 590.6759727 -506.66222505 589.35175375 -506.9921875 588.02734375 C-507.68167662 585.26871264 -508.37487524 582.51104364 -509.0703125 579.75390625 C-509.24691406 579.05201172 -509.42351562 578.35011719 -509.60546875 577.62695312 C-510.09293909 575.68989992 -510.58158447 573.75314252 -511.0703125 571.81640625 C-511.37710937 570.55699219 -511.68390625 569.29757812 -512 568 C-512.17125397 567.38947281 -512.34250793 566.77894562 -512.51895142 566.1499176 C-514.33949381 559.13009625 -514.2877993 552.23967364 -514.265625 545.0234375 C-514.26783257 543.63918442 -514.27069843 542.25493225 -514.27416992 540.87068176 C-514.27998498 537.14681291 -514.27134422 533.42312074 -514.25794983 529.69927597 C-514.2499644 527.36459099 -514.24495697 525.02991531 -514.24060059 522.69522095 C-514.00867358 414.2536365 -514.00867358 414.2536365 -505 381 C-504.8131665 380.30608154 -504.62633301 379.61216309 -504.43383789 378.8972168 C-503.96067425 377.1593354 -503.4805157 375.42336297 -503 373.6875 C-501.65079969 368.66888369 -500.48813328 363.6642751 -499.5 358.5625 C-497.05543474 346.02593272 -494.11669751 334.25708981 -489.05761719 322.47900391 C-487.75941735 319.43608581 -486.49466112 316.37980134 -485.2265625 313.32421875 C-475.96328217 291.17057712 -475.96328217 291.17057712 -469.859375 281.14453125 C-467.70170773 277.49553514 -465.85129841 273.74802205 -464 269.9375 C-461.02682321 263.8691292 -457.74547028 258.11980466 -454.125 252.40625 C-452.12317815 249.23795301 -450.25441417 246.00123951 -448.38696289 242.75244141 C-444.54856149 236.09148947 -440.52830689 229.71801869 -435.96582031 223.53076172 C-432.20285905 218.39427581 -428.79531071 213.05630669 -425.375 207.6875 C-421.55529302 201.71644474 -417.75102521 196.19224476 -412.828125 191.0625 C-409.79138108 187.63642994 -407.4348944 183.76559726 -404.9453125 179.93359375 C-399.84094023 172.23603638 -394.14592976 165.68426342 -387.125 159.6875 C-382.37073902 155.56654583 -378.30699738 150.94400412 -374.4296875 145.99609375 C-371.12192313 141.91332179 -367.81895439 139.07637835 -363.375 136.25 C-358.56876464 133.19039153 -354.39750185 129.87486211 -350.25 126 C-349.69602539 125.48244141 -349.14205078 124.96488281 -348.57128906 124.43164062 C-345.62581337 121.64007267 -342.85601853 118.75293812 -340.125 115.75 C-335.73865204 111.27091742 -330.28573895 108.74088339 -324.76171875 105.94921875 C-320.51021984 103.79063295 -316.5397786 101.26664869 -312.5625 98.640625 C-306.23753827 94.59110682 -300.79247952 92.17468295 -293.5625 90.25 C-283.13831853 87.30612504 -273.87167707 83.01662009 -264.52734375 77.5546875 C-258.90524049 74.40155022 -253.30672813 73.05687284 -247.0625 71.6875 C-234.99849614 69.03096038 -224.10476407 64.50212014 -213.04296875 59.0703125 C-206.87462602 56.05126874 -200.92538753 53.52769516 -194.1875 52 C-182.9498144 49.44854112 -172.0797938 45.66071786 -162.26660156 39.55102539 C-154.15082556 34.50537581 -146.53575596 32.51556256 -137.15942383 30.81420898 C-130.22768065 29.53778528 -123.69772019 27.81766159 -117.0625 25.4375 C-116.27713867 25.15632324 -115.49177734 24.87514648 -114.68261719 24.58544922 C-110.91437411 23.19361212 -107.30295883 21.66371528 -103.69140625 19.90625 C-98.26934791 17.45953221 -92.73142529 16.82643973 -86.875 16.0625 C-75.78293286 14.44982931 -66.04495732 11.84084026 -55.62890625 7.640625 C-44.12590138 3.0340035 -33.51730015 1.87343477 -21.23999023 1.39794922 C-15.96578725 1.17364346 -10.99478328 0.67874698 -5.875 -0.6953125 C-3.65732436 -1.05568479 -2.12419101 -0.67329268 0 0 Z " fill="#FEEB00" transform="translate(898,890)"/>
<path d="M0 0 C7.21863382 0.09354878 14.4369722 0.20098937 21.65527344 0.31738281 C24.1028188 0.35529438 26.55041276 0.3902075 28.99804688 0.421875 C53.02468785 0.73646277 74.8798771 1.61859017 96.87573242 11.99975586 C103.58296067 15.05328542 110.34531958 16.72525778 117.52929688 18.27270508 C122.4609364 19.34728049 126.96483861 20.62947981 131.625 22.625 C136.91004175 24.83798237 141.92965414 25.73143581 147.5625 26.5 C160.16889427 28.28305989 168.94887514 32.54200826 178.8359375 40.50390625 C184.7606604 45.25125726 191.14957295 49.17950162 198 52.4375 C207.59920974 57.08521864 215.77328647 64.3023684 224 71 C224.93199219 71.74507812 225.86398437 72.49015625 226.82421875 73.2578125 C235.10459927 79.92278454 241.90019461 86.77604719 248.5546875 95.0546875 C251.06161521 98.07421384 253.6915408 100.95166121 256.375 103.8125 C260.90361878 108.65064583 264.98052474 113.73840727 269.01074219 118.99487305 C271.69023953 122.44973674 274.46316724 125.58942098 277.625 128.625 C281.88693937 132.72010188 285.29284731 137.2162057 288.765625 141.98828125 C290.83484139 144.77738236 293.00221635 147.41684223 295.25 150.0625 C304.96378125 161.8311196 313.21782818 174.84845518 320.85351562 188.03955078 C322.08360923 190.14296893 323.34480103 192.22573889 324.609375 194.30859375 C336.35317246 213.84467248 347.49778574 235.33135838 351.03125 258.0390625 C352.1742991 263.63672875 354.73082505 268.78783748 357 274 C357.83604003 275.97541915 358.66941677 277.95196779 359.5 279.9296875 C360.11452026 281.38906738 360.11452026 281.38906738 360.74145508 282.87792969 C364.36626684 291.50997415 367.87404043 300.11891145 370.921875 308.97265625 C372.0337374 312.09473364 373.27166849 315.13538332 374.5625 318.1875 C377.70832486 325.64280906 380.62526835 332.9526084 382.34765625 340.87890625 C383.92042801 347.82236958 385.77004449 354.67228458 387.74194336 361.51123047 C388.31126285 363.49568772 388.86560401 365.48396443 389.41992188 367.47265625 C391.55853808 374.99053501 394.23135456 381.99175165 397.63256836 389.04736328 C399.5375479 393.16070422 400.88752652 397.33438253 402.125 401.6875 C402.37161377 402.52909668 402.61822754 403.37069336 402.87231445 404.23779297 C404.72058226 410.67991324 406.27632715 417.17157835 407.61962891 423.73706055 C408.39007637 427.47155361 409.30483238 431.09185628 410.4375 434.734375 C412.24971874 440.62309825 413.50590559 446.60792887 414.8125 452.625 C416.48150689 460.15985746 418.26489937 467.37656933 421.25 474.5 C424.1165175 481.55432042 425.01072964 488.18546351 425.578125 495.74609375 C425.80085084 498.62223333 426.28718831 501.20788705 427.04296875 503.98828125 C428.71564658 511.08377144 428.16976643 518.50599289 428.0625 525.75 C428.02544135 528.70309106 427.99562308 531.65614107 427.97265625 534.609375 C427.96277679 535.68547279 427.96277679 535.68547279 427.95269775 536.78330994 C427.93523753 541.2401584 428.16660635 545.60875723 428.58203125 550.05078125 C429.03378322 555.14895497 428.7313066 559.46514595 427.625 564.4375 C426.45444177 570.34129586 425.86234886 575.97086092 425.78564453 581.98999023 C425.62948081 594.08198213 422.96488772 604.19307632 418.87255859 615.52099609 C417.85664922 618.40727024 416.98408708 621.31950878 416.12768555 624.25610352 C414.18883594 630.88169283 411.71503076 637.11955524 408.9375 643.4375 C404.87293013 652.72767616 402.1759358 662.1116907 400.67797852 672.16015625 C399.30312021 680.52961706 395.95542148 688.10839688 392.6875 695.875 C392.05958537 697.38424975 391.43173803 698.8935275 390.80395508 700.40283203 C385.82737142 712.30116029 380.49834887 724.01052389 374.97265625 735.6640625 C373.05430288 739.71426044 371.20390871 743.78139358 369.43359375 747.8984375 C369.03954346 748.80867676 368.64549316 749.71891602 368.23950195 750.65673828 C367.53175932 752.30353834 366.83495383 753.955116 366.15307617 755.61279297 C364.00738696 760.57582737 361.31846695 764.15605097 357.65917969 768.12402344 C355.37416056 770.70761481 353.73228619 773.48926954 352.0625 776.5 C351.57172974 777.38123535 351.57172974 777.38123535 351.07104492 778.28027344 C346.61075956 786.38215054 342.49586985 794.68949431 338.5625 803.05859375 C338.15 803.92613281 337.7375 804.79367187 337.3125 805.6875 C336.97863281 806.41324219 336.64476562 807.13898437 336.30078125 807.88671875 C334.57215669 810.69508478 332.3736139 812.71700866 330 815 C324.57132597 820.76032936 319.34791553 826.61556892 314.5703125 832.9296875 C313.79300781 833.95449219 313.79300781 833.95449219 313 835 C312.40703125 835.81984375 311.8140625 836.6396875 311.203125 837.484375 C308.66261276 840.38524358 305.8710728 842.36174996 302.625 844.375 C302.00850586 844.76075195 301.39201172 845.14650391 300.75683594 845.54394531 C289.87668137 852.24240346 279.49915995 856.74031136 267.171875 859.8671875 C263.80715071 860.73458526 260.74274902 861.90015338 257.5625 863.3125 C249.76653077 866.29154525 241.19347487 865.3457994 233 865 C231.82824219 864.96777344 230.65648437 864.93554688 229.44921875 864.90234375 C221.92663279 864.53698777 214.96988205 862.91310336 207.73046875 860.9765625 C204.69765728 860.1826328 201.7048193 859.50801598 198.625 858.9375 C181.49387943 855.59135458 168.07640521 847.45312374 157 834 C155.71782149 832.50479496 154.43559614 831.00962984 153.15258789 829.51513672 C148.39871908 823.95613051 143.82070031 818.2813844 139.33251953 812.5065918 C135.683063 807.82660253 131.91817582 803.25140078 128.125 798.6875 C119.71056912 788.5375278 111.61289961 778.14136011 104 767.375 C97.42495804 758.26149247 89.92630916 749.70631255 81.8125 741.9375 C77.64358836 737.86896344 74.3224069 733.44593987 71.03271484 728.67041016 C65.9867851 721.40481747 60.2741461 714.69730642 54.59960938 707.91992188 C52.4352336 705.3221424 50.31241676 702.69264172 48.1875 700.0625 C44.71323234 695.80764182 41.08210505 691.72705267 37.38671875 687.6640625 C30.65841708 680.15391236 24.23773985 672.3754564 17.97265625 664.4765625 C14.36333984 659.9452623 10.68381045 655.47083638 7 651 C6.21753906 650.01 5.43507813 649.02 4.62890625 648 C1.84311251 644.82096643 -1.03461732 642.31099166 -4.375 639.75 C-4.98005371 639.28255371 -5.58510742 638.81510742 -6.20849609 638.33349609 C-16.53889006 630.44970455 -26.66740354 623.36348851 -39 619 C-33.82447236 608.406972 -28.52937093 597.98045026 -22.1015625 588.07421875 C-17.45964891 580.85448358 -13.89270094 573.56283243 -10.49438477 565.69482422 C-8.36545519 560.82960599 -6.0560548 556.25344072 -3.31518555 551.70703125 C2.57768267 541.912765 6.01638523 531.64765567 9.45629883 520.82250977 C11.91572773 513.10280825 14.66605825 505.9666846 18.30078125 498.72265625 C21.02902155 493.04213262 22.8224071 486.97076273 24.8112793 481.00317383 C26.79836509 475.14891701 29.04581729 469.56063128 31.66821289 463.96411133 C38.31224475 449.75720573 41.88435246 435.07864981 45.49913025 419.88935852 C46.46638965 415.90582228 47.62440869 412.08234023 49.03125 408.234375 C52.0286537 399.56483683 53.215463 390.47164067 54.625 381.4375 C54.77785461 380.47346252 54.93070923 379.50942505 55.0881958 378.51617432 C57.79314665 361.2927486 59.29788671 344.21401865 59.86914062 326.79931641 C59.98949216 323.30508029 60.14920083 319.81587121 60.328125 316.32421875 C61.2353096 297.8909694 61.18856286 279.44913201 61 261 C60.99139954 260.13661011 60.98279907 259.27322021 60.97393799 258.38366699 C60.73965113 236.18587654 60.06281666 214.03272416 58.6875 191.875 C58.63459808 190.95631134 58.58169617 190.03762268 58.52719116 189.09109497 C57.67343926 174.5750224 55.62115482 160.5201384 51.4375 146.5625 C49.98630807 141.53794299 49.28601234 136.48023872 48.5625 131.3125 C47.52749635 123.99896671 46.12958809 116.94977508 44.23828125 109.80078125 C42.49523792 103.17307707 40.98592485 96.48770931 39.4375 89.8125 C38.99809082 87.92362061 38.99809082 87.92362061 38.54980469 85.99658203 C38.26395508 84.76665527 37.97810547 83.53672852 37.68359375 82.26953125 C37.40008057 81.05692627 37.11656738 79.84432129 36.82446289 78.5949707 C36.28103659 76.22542606 35.75630744 73.85150438 35.25170898 71.47338867 C33.87466589 65.08304085 32.20514138 59.48116707 29.1875 53.6875 C26.39392055 48.07149506 23.97235635 42.47342296 21.875 36.5625 C17.8530447 25.52331899 11.88629118 17.31942575 4.31811523 8.44335938 C3.76196533 7.78271484 3.20581543 7.12207031 2.6328125 6.44140625 C2.12637207 5.85045166 1.61993164 5.25949707 1.09814453 4.65063477 C0 3 0 3 0 0 Z " fill="#FEEB00" transform="translate(1171,861)"/>
<path d="M0 0 C5.09986622 4.78214293 9.82031484 9.8312856 14.359375 15.14453125 C15.98009509 16.97748849 17.67738411 18.67657041 19.4375 20.375 C22 23 22 23 22 25 C22.55300781 25.24492187 23.10601563 25.48984375 23.67578125 25.7421875 C28.60755409 28.41114692 32.72643552 32.40274313 37 36 C37.76957031 36.62003906 38.53914063 37.24007812 39.33203125 37.87890625 C57.38521564 52.93949071 64.94168101 73.18293946 72.19506836 94.88818359 C74.89833377 102.95143493 77.87262468 110.83118591 81.125 118.6875 C88.59940461 136.91694334 93.74436009 155.87182297 99.06420898 174.81738281 C100.83040513 181.07068365 102.71594988 187.25234352 104.79516602 193.40820312 C108.89739516 205.61051099 111.24721811 217.89020444 113.40283203 230.56542969 C114.37962131 236.18336573 115.47222022 241.7781744 116.5625 247.375 C117.1415637 250.36523876 117.71906048 253.35571091 118.29052734 256.34741211 C118.83315119 259.14100996 119.39305966 261.92909432 119.96337891 264.71704102 C122.47380143 277.16751232 124.16610566 289.53574784 125.25 302.1875 C125.33371857 303.14012726 125.41743713 304.09275452 125.50369263 305.07424927 C127.91934837 333.10310144 129.50224612 362.25621464 124 390 C123.7848877 391.16611816 123.56977539 392.33223633 123.34814453 393.53369141 C120.11338932 411.0382629 116.05807834 428.29416177 111.5 445.5 C111.16838867 446.76827133 111.16838867 446.76827133 110.83007812 448.06216431 C106.85208199 463.19267769 101.49504026 477.47470039 95.125 491.75 C90.96435022 501.28008165 88.08321165 511.17470618 85.23291016 521.15527344 C81.86970502 532.86513038 78.20573855 543.91040297 71.5625 554.1875 C70.58703938 555.73945752 69.61177702 557.29153966 68.63671875 558.84375 C68.17700684 559.56691406 67.71729492 560.29007813 67.24365234 561.03515625 C65.74883259 563.39681887 64.30413445 565.78559337 62.875 568.1875 C62.41996094 568.94160156 61.96492188 569.69570313 61.49609375 570.47265625 C60.34019119 572.42531671 59.21284429 574.3948981 58.09765625 576.37109375 C54.01122336 583.52802691 49.56004019 590.1477559 44.375 596.5625 C43.84898193 597.21686035 43.32296387 597.8712207 42.78100586 598.54541016 C31.66907253 611.96405022 15.45732371 621.952672 -2 624 C-5.95410406 624.26517567 -9.91162961 624.45244204 -13.87280273 624.57104492 C-17.90921708 624.71764796 -21.63846242 625.08815986 -25.57421875 626.01171875 C-32.74241053 627.54428621 -40.01857765 627.34898161 -47.3125 627.3125 C-48.06466797 627.31067719 -48.81683594 627.30885437 -49.59179688 627.30697632 C-61.92332973 627.25671904 -73.9090724 626.60317492 -86 624 C-87.18118408 623.75056641 -87.18118408 623.75056641 -88.38623047 623.49609375 C-115.92095705 617.42349732 -136.68943892 598.3648386 -153.35546875 576.43359375 C-155.95488728 573.01938898 -158.7053163 569.75494969 -161.5 566.5 C-163.33793521 564.33720526 -165.16985953 562.16939236 -167 560 C-167.680625 559.1970752 -167.680625 559.1970752 -168.375 558.37792969 C-184.42351376 539.28612532 -193.65973175 517.62604767 -202.09130859 494.41748047 C-204.86336832 486.85588844 -207.89737215 479.47437651 -211.1875 472.125 C-229.86682509 429.85602761 -238.14166279 381.24826134 -241.73175049 335.3639679 C-241.89651698 333.29772304 -242.07082078 331.23217913 -242.26119995 329.1681366 C-243.09263284 319.71037834 -243.18161487 310.29849611 -243.203125 300.8125 C-243.20595238 299.95594818 -243.20877975 299.09939636 -243.21169281 298.21688843 C-243.22659553 293.67063096 -243.23587736 289.12440442 -243.24023438 284.578125 C-243.24458984 280.88791864 -243.25837997 277.19794993 -243.28125 273.5078125 C-243.41491936 251.47093242 -243.1026954 229.8623876 -240 208 C-239.87993591 207.15101135 -239.75987183 206.30202271 -239.63616943 205.42730713 C-238.91661383 200.52561254 -238.04146794 195.6684608 -237.0625 190.8125 C-236.92159943 190.09526764 -236.78069885 189.37803528 -236.63552856 188.6390686 C-234.0283152 175.48643856 -230.61017681 162.57880564 -226.9375 149.6875 C-226.68823761 148.80816803 -226.43897522 147.92883606 -226.18215942 147.02285767 C-223.05105606 136.05916969 -219.45527867 125.49889054 -215 115 C-214.37586857 113.49497137 -213.75209048 111.98979608 -213.12890625 110.484375 C-212.60704215 109.23946956 -212.08491023 107.99467636 -211.5625 106.75 C-209.73034129 102.37281179 -207.9697957 97.99445483 -206.421875 93.5078125 C-194.45717301 58.89248917 -174.04379212 33.60132039 -145 12 C-144.154375 11.34644531 -143.30875 10.69289063 -142.4375 10.01953125 C-130.90234815 1.27804899 -118.13972933 -6.07116233 -105.25 -12.625 C-104.63165283 -12.94339844 -104.01330566 -13.26179688 -103.3762207 -13.58984375 C-94.51700637 -17.95870546 -85.77787965 -18.52517069 -76.0625 -19.125 C-75.40814972 -19.16602844 -74.75379944 -19.20705688 -74.07962036 -19.24932861 C-43.66207175 -21.12800932 -23.78479963 -20.99696704 0 0 Z " fill="#000000" transform="translate(1306,115)"/>
<path d="M0 0 C2.52615103 1.8706981 5.10533871 3.62878176 7.72192383 5.36962891 C15.49982159 10.57738981 21.83422895 16.5835749 27.91015625 23.6875 C36.11834307 33.21281447 45.20829436 42.0227033 55.04296875 49.84375 C80.87555829 70.74533242 93.34670783 96.90473838 104.79492188 127.48632812 C107.14708877 133.76817579 109.55679533 140.00535869 112.16015625 146.1875 C117.5220453 159.50030452 120.26999156 173.79284546 123.37890625 187.76098633 C124.54335103 192.93236877 125.77031333 198.05785945 127.18774414 203.16552734 C131.02583534 217.09398867 133.49033699 230.8701363 135.34765625 245.1875 C137.23705358 259.60701066 139.55401379 273.64526746 143.26719666 287.71896362 C144.77874733 294.55805691 144.93870138 301.20461228 144.94628906 308.17236328 C144.95125397 309.2710675 144.95621887 310.36977173 144.96133423 311.50177002 C144.97590845 315.12879065 144.98275325 318.75576741 144.98828125 322.3828125 C144.99110863 323.62995907 144.993936 324.87710564 144.99684906 326.16204453 C145.01028832 332.09355874 145.0201811 338.02505973 145.02405095 343.95658696 C145.02850594 350.74369595 145.04593774 357.53060096 145.07505155 364.31764805 C145.09955583 370.2416169 145.10700912 376.16551979 145.1087265 382.08953476 C145.11172191 384.58416726 145.11964277 387.07879958 145.13291168 389.57339859 C145.20755481 404.69747095 144.38733996 419.15956607 141.78515625 434.0625 C141.56597982 435.40981271 141.34913331 436.75750749 141.13513184 438.10565186 C140.00535268 445.18978947 138.73199737 452.24996974 137.45898438 459.30957031 C137.02029806 461.75286235 136.58892529 464.19748251 136.16601562 466.64355469 C132.47929428 487.8334245 126.64898961 508.1080763 120.18359375 528.59326172 C118.98343503 532.40455206 117.84340308 536.23092358 116.72265625 540.06640625 C113.49221566 550.83396892 109.28546783 560.58499639 103.84765625 570.4375 C103.28643066 571.45448975 102.72520508 572.47147949 102.14697266 573.51928711 C90.9334181 592.90409613 73.86049726 602.36474427 54.72265625 612.421875 C51.69198866 614.06190313 51.69198866 614.06190313 48.59765625 616.203125 C44.1045065 619.17359622 39.70333858 619.49365774 34.47265625 620.0625 C32.97640492 620.22774605 31.48030706 620.39438823 29.984375 620.5625 C29.32268311 620.6346875 28.66099121 620.706875 27.97924805 620.78125 C26.27207006 621.00008488 24.57229496 621.27696565 22.87744141 621.57666016 C-3.60550106 625.73748879 -23.60611622 617.34628037 -47.11279297 606.49023438 C-49.76464501 605.26970622 -52.4248722 604.0732619 -55.09375 602.890625 C-70.83812138 595.83829102 -85.03738454 587.37419892 -97.21484375 575.0625 C-98.04242187 574.25941406 -98.87 573.45632813 -99.72265625 572.62890625 C-113.94047071 557.98767725 -124.38442269 539.59339025 -134.9765625 522.30078125 C-137.08182988 518.87267357 -139.22723339 515.47703479 -141.421875 512.10546875 C-141.94394531 511.29843506 -142.46601562 510.49140137 -143.00390625 509.65991211 C-143.96275593 508.18245383 -144.92916127 506.70984486 -145.90625 505.24438477 C-154.64502706 491.72031114 -160.08744921 476.56062138 -165.33984375 461.4375 C-167.60432334 454.96935253 -169.88798294 448.50849016 -172.21484375 442.0625 C-172.57225647 441.06579285 -172.57225647 441.06579285 -172.93688965 440.0489502 C-176.03163498 431.52459691 -179.88579748 423.89058916 -184.37905884 416.04621887 C-189.14279532 407.62538857 -192.80657023 398.8175467 -196.46484375 389.875 C-197.13836423 388.25285683 -197.81284276 386.6311111 -198.48828125 385.00976562 C-200.1129779 381.10092397 -201.71925613 377.18490704 -203.31588745 373.26452637 C-204.18122532 371.14484958 -205.05493639 369.02879055 -205.92993164 366.91308594 C-208.79687554 359.93517099 -211.37298523 353.0249475 -213.15234375 345.6875 C-213.39049805 344.72199219 -213.62865234 343.75648438 -213.87402344 342.76171875 C-216.34210437 332.27952175 -218.15420222 321.67427225 -219.96484375 311.0625 C-220.18803787 309.75578339 -220.18803787 309.75578339 -220.41574097 308.42266846 C-220.84921378 305.86601866 -221.27586497 303.30834354 -221.69921875 300.75 C-221.82295364 300.0118808 -221.94668854 299.2737616 -222.07417297 298.51327515 C-222.47767161 296.03277471 -222.84808118 293.54870254 -223.21484375 291.0625 C-223.38887726 289.95892654 -223.56291077 288.85535309 -223.74221802 287.71833801 C-225.46748611 275.71532709 -225.54248835 263.80921784 -225.55078125 251.69921875 C-225.55723073 249.45506206 -225.56396057 247.21090616 -225.57095337 244.9667511 C-225.58286102 240.27949074 -225.58664124 235.59230369 -225.58544922 230.9050293 C-225.58528714 226.15454812 -225.5991105 221.40445446 -225.62646484 216.65405273 C-225.91496886 165.84723651 -225.91496886 165.84723651 -221.21484375 144.0625 C-220.92138046 142.60864384 -220.62792292 141.15478652 -220.33447266 139.70092773 C-218.26423364 130.10655773 -213.94301059 121.43593809 -209.78125 112.6015625 C-207.82579764 108.43750616 -206.03014766 104.24010599 -204.31958008 99.97070312 C-197.15055153 82.125413 -187.36380918 65.36541068 -177.21484375 49.0625 C-176.65925781 48.1653125 -176.10367188 47.268125 -175.53125 46.34375 C-170.4417551 38.23961424 -165.09425653 30.30038773 -159.75244141 22.36132812 C-158.28116345 20.16165311 -156.83017184 17.9498349 -155.3828125 15.734375 C-141.86286878 -4.75724076 -124.65730496 -17.42977273 -100.3515625 -22.4140625 C-64.76136059 -28.35314974 -28.96504728 -21.84109603 0 0 Z " fill="#000000" transform="translate(757.21484375,153.9375)"/>
<path d="M0 0 C5.47121687 -0.08781478 10.66742575 0.40992082 16.05981445 1.30761719 C16.88924561 1.44474121 17.71867676 1.58186523 18.57324219 1.72314453 C59.296754 8.68916236 93.11853514 24.48852449 117.4387207 58.38964844 C119.58266452 61.42657579 121.59955399 64.52313856 123.55981445 67.68261719 C126.3765396 72.21993624 129.51780917 76.39124189 132.81176758 80.59155273 C142.612487 93.19117359 151.57116612 106.50595866 159.99731445 120.05761719 C160.36131348 120.6322168 160.7253125 121.20681641 161.1003418 121.79882812 C170.69722282 136.96929835 177.80638556 152.41019225 182.93481445 169.62011719 C183.22219482 170.58390793 183.22219482 170.58390793 183.51538086 171.56716919 C186.53917746 181.80078991 188.98409854 191.93477777 190.05981445 202.55761719 C190.14432861 203.38310059 190.22884277 204.20858398 190.31591797 205.05908203 C191.16740427 214.33045466 191.28811384 223.62380219 191.48144531 232.92636108 C191.68328624 242.18556278 192.24816008 251.19005555 193.55981445 260.37011719 C198.53585508 297.31308465 197.35760206 336.19331655 178.06640625 369.00073242 C176.99040365 371.07091326 176.37258039 372.98734385 175.80981445 375.24511719 C173.81172007 381.75027674 169.31157103 386.97719434 165.26977539 392.34277344 C164.10625029 393.9108088 162.99048316 395.51399308 161.88012695 397.12011719 C152.40331109 410.82153772 140.35409366 418.64986768 124.20214844 422.47973633 C118.93440325 423.42959181 113.77306069 423.45265037 108.43481445 423.37011719 C107.38874023 423.37333984 106.34266602 423.3765625 105.26489258 423.37988281 C92.38055379 423.29190781 81.7062186 420.1977667 69.99731445 415.05761719 C69.32394043 414.76612793 68.65056641 414.47463867 67.95678711 414.17431641 C57.82057471 409.74736339 48.45602097 404.47088086 39.0949707 398.59277344 C35.81756536 396.54017357 32.4894021 394.66052781 29.05981445 392.87011719 C18.97774998 387.47100711 10.8813361 380.32077244 2.99731445 372.12011719 C-2.96443358 366.03019516 -8.86568678 360.29566075 -15.56518555 355.03027344 C-43.86689181 332.1258477 -58.47215607 291.98175123 -70.6315918 258.74902344 C-71.50028913 256.41022292 -72.40033148 254.08263111 -73.3425293 251.77246094 C-78.23295873 239.77678753 -80.6615672 227.42479983 -82.72021484 214.68847656 C-83.53560863 209.95331105 -84.72629422 205.45149323 -86.14916992 200.86425781 C-100.45115332 154.63883491 -97.52861812 99.21471914 -78.00268555 55.05761719 C-77.67365234 54.2901416 -77.34461914 53.52266602 -77.00561523 52.73193359 C-67.64950247 30.95541788 -53.0800108 15.73608798 -31.01831055 6.18652344 C-20.91969967 2.40608491 -10.77272963 0.30993102 0 0 Z " fill="#000000" transform="translate(230.002685546875,484.9423828125)"/>
<path d="M0 0 C0.81339844 0.3815625 1.62679688 0.763125 2.46484375 1.15625 C10.51094742 5.02433066 17.94855193 9.34340713 24 16 C24.67804688 16.7321875 25.35609375 17.464375 26.0546875 18.21875 C34.6277763 27.57121051 41.41681007 36.97131574 47.5 48.125 C48.16296636 49.33034328 48.82597118 50.5356654 49.48901367 51.7409668 C58.48792792 68.17926157 65.14485557 82.28284368 65.16796875 101.28125 C65.17129715 102.25300171 65.17462555 103.22475342 65.17805481 104.22595215 C65.18309622 106.27660655 65.185464 108.32726909 65.18530273 110.37792969 C65.18747398 113.46303424 65.20561768 116.54777175 65.22460938 119.6328125 C65.30475363 147.34206142 60.10840717 166.50951015 45.66699219 190.21923828 C43.8346102 193.2758919 42.11271339 196.37760288 40.41772461 199.51171875 C35.76347671 208.10752943 30.31709533 216.02146007 24.53955078 223.89746094 C23.03223321 225.95597964 21.54468615 228.027691 20.05859375 230.1015625 C13.06404336 239.75520779 5.3380045 248.48902302 -3 257 C-3.57532471 257.59578857 -4.15064941 258.19157715 -4.7434082 258.80541992 C-16.85758313 271.19114547 -31.7857197 279.03506526 -47 287 C-48.78442171 287.94554431 -50.5682917 288.89213065 -52.3515625 289.83984375 C-56.89094382 292.24637198 -61.43674621 294.63904277 -66 297 C-66.67571045 297.35642578 -67.3514209 297.71285156 -68.04760742 298.08007812 C-95.91367266 312.50343757 -138.48796608 315.56270284 -168.421875 306.45703125 C-175.90540327 303.87107541 -182.83992327 300.26391038 -189.83959961 296.59985352 C-192.08474102 295.42587018 -194.33759299 294.26779882 -196.59179688 293.11132812 C-198.03172405 292.36549785 -199.47119476 291.61878547 -200.91015625 290.87109375 C-201.91321556 290.35536049 -201.91321556 290.35536049 -202.9365387 289.82920837 C-206.06872279 288.18073449 -208.60602386 286.60812289 -211 284 C-212.6660841 283.39566334 -214.35801823 282.86059337 -216.0625 282.375 C-230.44722541 277.43382775 -238.2985543 263.27359216 -244.85058594 250.46044922 C-250.07284269 239.28162519 -252.15784242 227.13453271 -252.375 214.875 C-252.41238281 214.12863281 -252.44976563 213.38226562 -252.48828125 212.61328125 C-252.72123316 196.4878325 -246.31174804 179.84295366 -241.13574219 164.77758789 C-240.24608044 162.17603841 -239.38432864 159.56626918 -238.5234375 156.95507812 C-234.78906106 145.85957523 -230.13183811 135.96513676 -224 126 C-223.48775879 125.15477783 -222.97551758 124.30955566 -222.44775391 123.4387207 C-221.22428193 121.45815424 -219.96941843 119.50562386 -218.6875 117.5625 C-218.0056665 116.52246826 -218.0056665 116.52246826 -217.31005859 115.46142578 C-215.88382485 113.30042132 -214.44489979 111.14856258 -213 109 C-212.52159668 108.28666504 -212.04319336 107.57333008 -211.55029297 106.83837891 C-205.24968784 97.50859619 -198.50813293 88.82602516 -191.01953125 80.421875 C-188.40457948 77.48687464 -185.93811494 74.45941598 -183.5 71.375 C-176.51436803 62.75552777 -168.46231091 54.88637846 -159.99609375 47.72265625 C-157.57595657 45.63404471 -155.2686762 43.43740321 -152.9375 41.25 C-129.0630787 19.70795093 -99.45572905 4.35780428 -68 -2 C-66.34170166 -2.34490479 -66.34170166 -2.34490479 -64.64990234 -2.69677734 C-41.82197419 -7.38292743 -21.52991614 -10.48413308 0 0 Z " fill="#000000" transform="translate(1855,654)"/>
<path d="M0 0 C7.44619568 7.10579816 12.20299036 16.96983701 17.05078125 25.95703125 C17.61152344 26.97410156 18.17226562 27.99117187 18.75 29.0390625 C26.28648776 43.82728407 27.75343416 60.59674634 28.05078125 76.95703125 C28.08945313 78.42317871 28.08945313 78.42317871 28.12890625 79.91894531 C28.94528236 113.05361077 24.80368236 159.66383054 2.05078125 185.95703125 C0.81030685 187.09519848 -0.46040968 188.20145069 -1.76171875 189.26953125 C-6.6389349 193.44226063 -10.67685443 198.17637491 -14.73046875 203.13671875 C-20.31098634 209.81865428 -26.2651307 213.26102208 -35.125 214.18359375 C-51.09246712 214.7585271 -65.30411098 208.46034919 -77.51171875 198.51953125 C-81.70387975 194.5204303 -84.82796178 189.80916709 -87.94921875 184.95703125 C-88.53703125 184.0546875 -89.12484375 183.15234375 -89.73046875 182.22265625 C-90.92146837 180.37347263 -92.09853514 178.51524334 -93.26171875 176.6484375 C-94.31419457 174.96983602 -95.39343183 173.30736961 -96.51171875 171.671875 C-108.44248099 153.55824378 -110.13678411 131.15885862 -110.13452148 110.10742188 C-110.13669505 107.85657446 -110.15488316 105.60622922 -110.17382812 103.35546875 C-110.23477689 88.22912073 -108.42206097 73.67827888 -105.19921875 58.89453125 C-104.93681396 57.68933838 -104.67440918 56.48414551 -104.40405273 55.24243164 C-100.68413811 38.74093033 -95.26343386 24.47475668 -83.6171875 11.8515625 C-81.96245367 9.97206389 -80.60265899 8.0280104 -79.19921875 5.95703125 C-71.76540897 -4.0727121 -57.85918226 -11.88964241 -45.5703125 -13.796875 C-28.04384951 -15.44242965 -13.68676999 -11.15848566 0 0 Z " fill="#FEEB00" transform="translate(1071.94921875,1008.04296875)"/>
</svg>
